<svg width="88" height="110" viewBox="0 0 88 110" fill="none" xmlns="http://www.w3.org/2000/svg">
<g id="Frame 1078">
<g id="Group 2">
<path id="Vector" d="M30.8746 56.5035C36.6603 59.3128 43.6208 59.6966 49.7719 57.9108C51.4037 57.4356 52.9963 56.7933 54.4845 55.9709C54.9571 55.7098 55.1111 55.0597 54.8422 54.6029C54.5733 54.146 53.9493 53.9815 53.4741 54.2452C52.8632 54.582 52.2366 54.89 51.5943 55.1616C51.7797 55.0832 51.4846 55.206 51.4742 55.2086C51.3985 55.2399 51.3228 55.2686 51.247 55.2973C51.08 55.3626 50.9129 55.4253 50.7432 55.4879C50.4037 55.6132 50.0591 55.7281 49.7145 55.8352C49.0096 56.0545 48.2968 56.2425 47.5736 56.3991C47.2237 56.4748 46.8739 56.5427 46.5214 56.6054C46.3361 56.6367 46.1507 56.668 45.9627 56.6967C45.8948 56.7072 45.8269 56.7176 45.7591 56.7281C45.6912 56.7385 45.6233 56.7464 45.5554 56.7568C45.6494 56.7437 45.6363 56.7464 45.5136 56.762C43.9915 56.9448 42.4616 57.0179 40.929 56.9526C40.1588 56.9213 39.3912 56.856 38.6262 56.7568C38.6706 56.762 38.7881 56.7803 38.5792 56.7516C38.4748 56.7359 38.3704 56.7229 38.2685 56.7046C38.0962 56.6785 37.9239 56.6498 37.7516 56.6184C37.3574 56.5505 36.9631 56.4722 36.5715 56.3834C35.7412 56.1981 34.9214 55.9683 34.1173 55.6942C33.2401 55.3939 32.6735 55.1616 31.8798 54.7752C31.3942 54.5402 30.7989 54.642 30.5117 55.1329C30.2559 55.5715 30.3838 56.2633 30.8694 56.5009L30.8746 56.5035Z" fill="#1E1E1E"/>
<g id="Group 45">
<path id="Vector_2" d="M46.6288 96.1012C43.0727 96.406 39.5344 96.3624 36.3279 96.3189C28.7461 96.2187 19.236 94.2849 17.9509 84.1307C17.039 76.9282 17.5727 68.7224 19.7733 61.62C21.3878 56.4059 24.0582 55.3271 29.1239 55.2235C38.9473 55.0229 48.3841 54.0458 55.9071 54.1749C64.4163 54.3206 65.7133 62.8852 67.5427 72.3841C69.5174 82.6419 68.2601 86.4958 64.4783 90.4678C60.0063 95.1646 52.8428 95.5702 46.6288 96.1012Z" fill="#E8E8E8"/>
<path id="Vector_3" d="M32.0847 96.4662C32.0664 97.1361 32.0323 97.8042 31.9853 98.4755C31.9726 98.6512 32.0109 98.2417 31.9818 98.5123C31.9765 98.5674 31.9711 98.6199 31.9659 98.6751C31.9528 98.7881 31.9398 98.9011 31.9269 99.0167C31.8999 99.2218 31.8702 99.4245 31.8301 99.6276C31.8006 99.7806 31.766 99.9338 31.7234 100.085C31.7078 100.143 31.6895 100.199 31.6712 100.254C31.6008 100.483 31.7734 100.038 31.678 100.233C31.6351 100.321 31.587 100.41 31.5441 100.498C31.4631 100.667 31.7004 100.321 31.6005 100.42C31.5681 100.453 31.536 100.493 31.5063 100.529C31.3381 100.733 31.7268 100.383 31.5291 100.515C31.4683 100.554 31.4075 100.596 31.3466 100.636C31.2857 100.675 31.2243 100.704 31.1633 100.741C31.1354 100.758 31.1046 100.77 31.0794 100.789C30.973 100.862 31.3261 100.699 31.2098 100.728C31.1633 100.741 31.12 100.764 31.0736 100.779C30.2405 101.072 29.2789 101.132 28.5741 101.711C27.4717 102.618 27.0988 104.201 27.77 105.476C28.1688 106.234 28.8858 106.587 29.7178 106.606C30.2567 106.617 30.8014 106.584 31.3419 106.571C32.4805 106.55 33.6246 106.535 34.7606 106.459C35.4276 106.414 36.1068 106.351 36.7033 106.028C37.3763 105.665 37.7646 104.97 37.8422 104.224C37.9142 103.528 37.8083 102.829 37.7759 102.136C37.7465 101.507 37.7301 100.878 37.7164 100.249C37.6859 98.9826 37.6812 97.7073 37.5699 96.4449C37.5247 95.9269 37.0814 95.4458 36.5298 95.4977C36.0119 95.5455 35.5331 95.9834 35.5826 96.5378C35.7689 98.6227 35.6841 100.72 35.8209 102.807C35.8366 103.031 35.86 103.253 35.8731 103.477C35.8791 103.604 35.8908 103.855 35.8885 103.918C35.892 103.881 35.7911 104.293 35.8591 104.128C35.8381 104.181 35.8047 104.251 35.7704 104.3C35.8663 104.17 35.7424 104.314 35.7319 104.314L35.7819 104.265C35.6902 104.316 35.675 104.328 35.7365 104.301C35.8475 104.27 35.662 104.328 35.6389 104.337C35.5798 104.358 35.5178 104.374 35.4558 104.39C35.2984 104.434 35.5961 104.373 35.4327 104.399C35.2692 104.425 35.1208 104.437 34.9646 104.45C33.9232 104.538 32.8731 104.55 31.8261 104.573C31.3117 104.584 30.7972 104.592 30.2828 104.603C30.0635 104.608 29.8445 104.621 29.6249 104.618C29.3894 104.614 29.5485 104.606 29.5802 104.613C29.3717 104.57 29.524 104.586 29.5727 104.621C29.6752 104.689 29.4913 104.502 29.5589 104.606C29.6208 104.7 29.4936 104.494 29.4823 104.476C29.5674 104.618 29.4973 104.517 29.482 104.471C29.4636 104.412 29.4491 104.326 29.4204 104.27C29.3628 104.157 29.4113 104.411 29.4237 104.285C29.4291 104.233 29.4183 104.171 29.4133 104.119C29.4118 104.087 29.4165 103.907 29.4096 104.04C29.4028 104.174 29.418 103.995 29.4244 103.964C29.4394 103.895 29.4571 103.826 29.4722 103.758C29.5086 103.586 29.4273 103.804 29.4836 103.721C29.5128 103.675 29.5337 103.619 29.5574 103.568C29.5693 103.541 29.6588 103.388 29.5932 103.493C29.5275 103.598 29.6251 103.45 29.645 103.428C29.6922 103.376 29.7395 103.324 29.7868 103.275C29.6523 103.417 29.8732 103.221 29.9264 103.185C30.0931 103.062 29.7379 103.236 29.9675 103.17C31.0017 102.873 32.2685 102.689 33.0202 101.828C33.447 101.34 33.6496 100.698 33.7693 100.073C34.0029 98.8647 34.0357 97.6086 34.0698 96.3812C34.0846 95.8604 33.5371 95.3868 33.0297 95.434C32.4597 95.4868 32.0982 95.9167 32.0825 96.4741L32.0847 96.4662Z" fill="#1E1E1E"/>
<path id="Vector_4" d="M55.1337 96.0566C55.1559 97.1776 55.2014 98.3045 55.3648 99.4137C55.4573 100.056 55.6065 100.726 55.9227 101.301C56.2116 101.824 56.6473 102.232 57.203 102.451C57.5441 102.585 57.913 102.661 58.2684 102.749C58.4448 102.792 58.6239 102.836 58.8002 102.883C58.8754 102.903 58.9506 102.924 59.0257 102.946C59.0542 102.955 59.0852 102.969 59.1138 102.975C59.2644 103.005 59.0417 102.936 59.0391 102.936C59.0917 102.922 59.2781 103.081 59.3241 103.116C59.163 102.989 59.3896 103.207 59.4277 103.247C59.4607 103.285 59.5151 103.396 59.4277 103.247C59.4502 103.284 59.4754 103.319 59.4927 103.356C59.5175 103.404 59.5395 103.462 59.5696 103.507C59.6275 103.589 59.5419 103.373 59.5817 103.544C59.6074 103.654 59.6359 103.762 59.6564 103.875C59.6178 103.657 59.6437 103.956 59.6444 104.029C59.6455 104.084 59.6056 104.208 59.6553 104.013C59.6407 104.068 59.6314 104.122 59.6143 104.177C59.5972 104.231 59.58 104.286 59.5578 104.335C59.6163 104.2 59.5584 104.314 59.5174 104.381L59.4929 104.419C59.5494 104.355 59.5523 104.347 59.5039 104.396C59.4176 104.401 59.5145 104.391 59.5619 104.379C59.6591 104.356 59.496 104.398 59.4934 104.398C59.625 104.362 59.4933 104.403 59.4489 104.405C59.2162 104.412 58.9839 104.405 58.7515 104.404C58.2501 104.404 57.7486 104.404 57.2498 104.403C56.2521 104.403 55.2517 104.404 54.2555 104.352C54.0338 104.34 53.8094 104.332 53.5878 104.315C53.5279 104.311 53.4627 104.307 53.4029 104.297C53.6239 104.335 53.4158 104.3 53.4031 104.287C53.3602 104.233 53.2975 104.232 53.3953 104.287C53.2899 104.224 53.3393 104.233 53.4 104.308C53.4808 104.409 53.3927 104.19 53.4048 104.321C53.4192 104.467 53.4121 104.245 53.3912 104.245L53.3819 104.203C53.3895 104.31 53.3916 104.328 53.3884 104.252C53.39 104.192 53.3838 104.132 53.3854 104.072C53.3897 103.814 53.4253 103.559 53.4504 103.303C53.667 101.074 53.375 98.8196 53.5263 96.588C53.5612 96.0666 53.0812 95.5574 52.5586 95.5669C51.9994 95.578 51.5733 95.9793 51.5375 96.5346C51.3908 98.6906 51.6253 100.854 51.4812 103.01C51.4426 103.573 51.3443 104.119 51.452 104.681C51.5917 105.411 52.1477 106.008 52.8659 106.203C53.4053 106.348 53.9985 106.335 54.5516 106.357C55.1047 106.38 55.6242 106.386 56.1595 106.39C57.2041 106.397 58.2485 106.41 59.2935 106.399C60.1112 106.389 60.8375 106.087 61.2595 105.352C61.6048 104.75 61.696 104.076 61.5915 103.397C61.4206 102.269 60.5714 101.311 59.4774 101.008C59.0756 100.895 58.6653 100.806 58.2608 100.698C58.1078 100.657 57.9428 100.575 57.7894 100.552C57.7998 100.553 58.0257 100.697 57.8645 100.575C57.8313 100.548 57.7877 100.516 57.7517 100.496C57.8469 100.549 57.9375 100.676 57.8056 100.532C57.7726 100.494 57.7397 100.454 57.7067 100.419C57.5998 100.317 57.8318 100.624 57.7822 100.526C57.7699 100.499 57.747 100.475 57.7321 100.449C57.6996 100.393 57.6645 100.337 57.6348 100.279C57.605 100.221 57.5865 100.132 57.546 100.083C57.5511 100.089 57.6332 100.336 57.59 100.194C57.5756 100.147 57.5585 100.102 57.5415 100.055C57.486 99.8859 57.4436 99.715 57.4064 99.5416C57.3625 99.3315 57.3263 99.1216 57.2954 98.9092C57.278 98.7808 57.2632 98.6524 57.2457 98.524C57.2713 98.7388 57.2519 98.5842 57.2479 98.5397C57.2399 98.4507 57.2317 98.3643 57.2237 98.2752C57.1646 97.558 57.1395 96.8365 57.1249 96.1179C57.1153 95.5979 56.7112 95.0856 56.1572 95.0968C55.6372 95.1063 55.125 95.5079 55.1361 96.0645L55.1337 96.0566Z" fill="#1E1E1E"/>
<path id="Vector_5" d="M46.3643 95.2182C42.9148 95.5102 39.4507 95.4893 35.993 95.4366C35.4855 95.429 34.9778 95.4135 34.4721 95.3875C34.2258 95.3755 33.9795 95.3609 33.7356 95.3436C33.6124 95.3362 33.4891 95.3263 33.3658 95.3164C33.316 95.3135 33.2661 95.308 33.2163 95.3051C32.9015 95.2806 33.3239 95.3158 33.1297 95.2987C32.0926 95.1982 31.0591 95.0636 30.033 94.8633C29.007 94.663 28.0016 94.4042 27.0189 94.0685C26.9019 94.0269 26.785 93.9854 26.668 93.9438C26.9552 94.048 26.5829 93.9112 26.5109 93.8806C26.258 93.7826 26.0074 93.6767 25.7591 93.5655C25.2892 93.3548 24.8288 93.1228 24.383 92.8666C24.1708 92.7459 23.9637 92.6196 23.7589 92.4881C23.6565 92.4223 23.5566 92.3538 23.4541 92.2854C23.2436 92.1436 23.6436 92.4255 23.4379 92.2757C23.3783 92.2314 23.3189 92.1898 23.2621 92.148C22.8505 91.8432 22.4587 91.5139 22.0894 91.16C21.9115 90.9906 21.7413 90.8156 21.5734 90.6352C21.4908 90.545 21.4081 90.4522 21.3279 90.3592C21.4991 90.5551 21.3778 90.4196 21.3361 90.3667C21.2806 90.2987 21.2252 90.2307 21.1724 90.1626C20.8444 89.7441 20.544 89.3007 20.2766 88.8375C20.1458 88.611 20.0226 88.3789 19.907 88.1439C19.8205 87.9702 19.9071 88.1465 19.9216 88.1772C19.8894 88.1029 19.8547 88.0313 19.8225 87.957C19.7554 87.8086 19.6935 87.6573 19.6341 87.5058C19.418 86.9645 19.243 86.4081 19.0989 85.8424C19.0252 85.5505 18.9643 85.2554 18.9061 84.9602C18.8715 84.7788 18.947 85.2196 18.9016 84.9212C18.8868 84.8278 18.872 84.7344 18.8573 84.6436C18.8305 84.4619 18.8064 84.2827 18.7849 84.1007C18.6919 83.3419 18.6144 82.5797 18.5552 81.8166C18.428 80.2151 18.3737 78.605 18.3822 76.9998C18.3885 76.1841 18.4104 75.3676 18.4506 74.5502C18.469 74.1599 18.4925 73.7694 18.5188 73.3813C18.5333 73.1872 18.5476 72.9905 18.562 72.7964C18.5626 72.8095 18.5918 72.4265 18.577 72.6128C18.5871 72.4947 18.5974 72.3792 18.6102 72.261C18.9146 69.045 19.4863 65.8452 20.3919 62.7422C20.4934 62.3977 20.5949 62.0532 20.707 61.7108C20.762 61.5461 20.8172 61.3841 20.8749 61.222C20.861 61.2592 20.8003 61.4137 20.8752 61.2272C20.9125 61.1314 20.9499 61.0355 20.9898 60.9396C21.1985 60.428 21.4391 59.928 21.7227 59.4521C21.7857 59.3472 21.8514 59.2422 21.9198 59.1397C21.9515 59.0911 22.0988 58.8882 21.927 59.1263C21.9539 59.0884 21.9809 59.0506 22.0105 59.0126C22.1606 58.8122 22.3213 58.6165 22.4905 58.4334C22.6298 58.2832 22.7878 58.085 22.963 57.9748C22.6914 58.147 22.9833 57.9608 23.054 57.9079C23.1549 57.83 23.2611 57.7544 23.3676 57.6841C23.5451 57.566 23.7281 57.4555 23.9195 57.3577C23.9731 57.3291 24.034 57.2896 24.0932 57.2712C24.0778 57.2771 23.8526 57.3791 24.0192 57.3086C24.1396 57.2559 24.2599 57.2033 24.3832 57.1557C24.8324 56.9805 25.2994 56.8515 25.773 56.7509C25.8325 56.7377 25.8923 56.7297 25.9516 56.7138C26.1093 56.6751 25.6767 56.758 25.9231 56.7178C26.0476 56.6989 26.1721 56.6774 26.2967 56.6585C26.5823 56.619 26.8708 56.5846 27.1598 56.5606C27.7611 56.5063 28.3662 56.4807 28.9694 56.4681C32.4864 56.3899 36.0019 56.2229 39.5161 56.0298C42.8139 55.8469 46.1133 55.6429 49.4162 55.5146C50.919 55.4574 52.4252 55.4157 53.9303 55.4081C54.6228 55.4044 55.3204 55.4006 56.0142 55.4256C56.1531 55.4322 56.2946 55.4413 56.4335 55.4478C56.4885 55.4505 56.6411 55.4721 56.3941 55.4444C56.4756 55.4537 56.5543 55.4605 56.6358 55.4697C56.9091 55.5014 57.1776 55.5437 57.4468 55.5991C57.716 55.6544 57.9566 55.7138 58.2084 55.7882C58.325 55.822 58.4391 55.8585 58.5533 55.8976C58.5932 55.9114 58.6565 55.9241 58.6889 55.9461C58.4624 55.7973 58.6411 55.9301 58.7264 55.9653C59.1633 56.1435 59.5838 56.3591 59.9824 56.6122C60.039 56.6488 60.0958 56.688 60.1524 56.7245C60.3141 56.8294 60.0961 56.6958 60.0955 56.6827C60.0975 56.7245 60.3229 56.8498 60.3663 56.8844C60.5616 57.0373 60.7495 57.1984 60.9299 57.3677C61.0966 57.522 61.2558 57.6844 61.4073 57.8498C61.4541 57.8999 61.4983 57.9527 61.5451 58.0028C61.6775 58.1509 61.5088 57.9523 61.5036 57.9525C61.5692 57.9599 61.7171 58.2143 61.7644 58.2775C62.0677 58.671 62.3433 59.0868 62.5934 59.5168C62.7183 59.7279 62.8356 59.9446 62.9477 60.1615C63.0052 60.2738 63.0601 60.3862 63.1149 60.4961C62.9792 60.2201 63.1907 60.6624 63.2199 60.729C63.6839 61.7633 64.0504 62.8386 64.3705 63.9266C65.083 66.3633 65.5553 68.8634 66.03 71.3556C66.5486 74.0626 67.0711 76.7957 67.1789 79.6605C67.2003 80.2292 67.206 80.7988 67.1855 81.3669C67.1764 81.6182 67.1646 81.8697 67.1449 82.1189C67.142 82.1687 67.1364 82.216 67.1335 82.2658C67.1141 82.5229 67.161 82.0162 67.1336 82.2684C67.1193 82.4102 67.1049 82.5494 67.088 82.6914C66.9781 83.5825 66.7919 84.4642 66.5024 85.3142C66.4701 85.4071 66.403 85.7605 66.4657 85.4256C66.4492 85.5179 66.3911 85.6173 66.356 85.7052C66.2787 85.897 66.1935 86.0866 66.1056 86.2763C65.9344 86.6397 65.7445 86.9936 65.5357 87.3353C65.4337 87.5021 65.3292 87.6691 65.2191 87.831C65.1874 87.8796 65.1531 87.9282 65.1188 87.9769C65.0235 88.1198 65.1679 87.9092 65.1726 87.8986C65.1173 88.0005 65.0327 88.0933 64.964 88.188C64.7107 88.5291 64.4413 88.8606 64.161 89.1821C63.8311 89.5609 63.4904 89.9323 63.1305 90.2836C63.013 90.3989 62.8927 90.5091 62.7698 90.6194C62.6971 90.6855 62.6243 90.749 62.5488 90.8127C62.5815 90.785 62.6922 90.6936 62.5337 90.8238C62.2567 91.0485 61.9767 91.2655 61.6829 91.4674C61.1286 91.854 60.5489 92.2 59.9489 92.5051C59.8928 92.5339 59.834 92.5627 59.7778 92.5915C59.7575 92.6029 59.4684 92.7367 59.6808 92.6405C59.535 92.7074 59.3891 92.7743 59.2405 92.8388C58.9152 92.9795 58.5842 93.1126 58.2502 93.2353C56.9706 93.7055 55.6456 94.0445 54.3065 94.3058C54.2263 94.3226 54.1433 94.337 54.0603 94.3513C54.2987 94.3062 53.9722 94.3659 53.9489 94.3722C53.7856 94.4007 53.6197 94.4294 53.4562 94.4553C53.1112 94.5107 52.7634 94.5635 52.4154 94.6112C51.7377 94.7056 51.0592 94.7844 50.3777 94.8554C49.0433 94.9936 47.7049 95.1007 46.3668 95.2155C45.8123 95.2623 45.2963 95.7413 45.35 96.332C45.4022 96.8889 45.8705 97.4002 46.4666 97.3488C52.0741 96.8697 58.2642 96.5541 63.0031 93.149C64.7681 91.8798 66.299 90.1878 67.4247 88.3264C68.3829 86.7395 68.9545 84.9329 69.1744 83.0956C69.4762 80.5515 69.2726 77.9865 68.9036 75.4606C68.4738 72.5299 67.8847 69.6013 67.2527 66.7061C66.3014 62.3492 64.9742 57.2753 60.9659 54.7262C60.0526 54.1442 59.0043 53.7489 57.946 53.5292C56.6263 53.2564 55.2681 53.2755 53.9248 53.2782C50.7366 53.2887 47.5501 53.4482 44.3668 53.6206C40.8316 53.812 37.295 54.0297 33.7578 54.1794C31.9762 54.2549 30.1953 54.2885 28.4129 54.3483C27.2073 54.389 25.9998 54.503 24.8237 54.7828C22.6808 55.2933 20.9583 56.5762 19.8286 58.4638C19.1354 59.6253 18.7022 60.9263 18.3235 62.2169C17.8591 63.8016 17.4823 65.4136 17.1845 67.0375C16.5719 70.3699 16.2681 73.7662 16.2488 77.1545C16.2395 78.7989 16.3007 80.4427 16.4349 82.083C16.5604 83.5931 16.7126 85.115 17.0924 86.5871C17.689 88.8932 18.889 91.0221 20.6003 92.6854C22.2185 94.2564 24.226 95.323 26.339 96.0736C31.0408 97.7461 36.2061 97.6483 41.1249 97.5882C42.9091 97.5675 44.691 97.4972 46.4692 97.3487C47.0237 97.3019 47.5397 96.823 47.486 96.2322C47.4337 95.6727 46.9657 95.1666 46.3694 95.2154L46.3643 95.2182Z" fill="#1E1E1E"/>
<path id="Vector_6" d="M18.4291 61.5092C17.3855 62.3866 16.32 63.244 15.34 64.1968C14.1299 65.3721 13.0857 66.6859 12.1421 68.0813C11.8293 68.5455 12.11 69.2956 12.5937 69.5213C13.1656 69.7899 13.6987 69.5663 14.0336 69.0697C14.2487 68.7512 14.4326 68.4917 14.6985 68.1421C14.9374 67.8278 15.1843 67.5183 15.4393 67.2162C15.9049 66.6639 16.4003 66.1363 16.9204 65.631C17.3754 65.1889 17.8498 64.7695 18.3296 64.355C18.4275 64.2694 18.1888 64.4739 18.3421 64.3439C18.405 64.2913 18.4679 64.2387 18.5307 64.1835C18.6464 64.0866 18.7595 63.9899 18.8753 63.8956C19.1143 63.6962 19.3532 63.4969 19.5922 63.2975C20.0172 62.9405 20.2684 62.3302 19.9074 61.8217C19.6054 61.3993 18.8895 61.1244 18.4316 61.5065L18.4291 61.5092Z" fill="#1E1E1E"/>
<path id="Vector_7" d="M12.9264 68.0132C11.7465 67.6528 10.3401 67.8153 9.41304 68.6715C8.96699 69.0818 8.66753 69.7205 8.58567 70.3176C8.48694 71.0567 8.59762 71.7468 8.93446 72.4106C9.21378 72.9621 9.72228 73.4401 10.2977 73.672C10.9903 73.9506 11.7048 73.9721 12.4282 73.7919C13.0225 73.6439 13.6392 73.3066 14.0379 72.8332C14.4886 72.2998 14.6913 71.6604 14.7139 70.9694C14.7365 70.2783 14.505 69.5756 14.1518 69.0093C13.971 68.7197 13.6598 68.4938 13.4088 68.2677C12.9966 67.8923 12.2701 67.8949 11.9014 68.3382C11.5327 68.7815 11.5296 69.4429 11.9719 69.8456C12.152 70.0097 12.3322 70.1738 12.5124 70.3379L12.3354 70.1292C12.3863 70.2131 12.4321 70.2972 12.4781 70.3865L12.3592 70.1359C12.4693 70.366 12.5484 70.6054 12.5966 70.8541L12.5442 70.5716C12.5802 70.7816 12.5926 70.9902 12.5736 71.2001L12.5995 70.914C12.5834 71.0742 12.5488 71.2274 12.4957 71.3789L12.5907 71.1183C12.5396 71.254 12.4749 71.3799 12.3968 71.4985L12.5536 71.2743C12.4678 71.3959 12.3682 71.5025 12.2576 71.5965L12.4663 71.4195C12.3303 71.5304 12.1802 71.6184 12.0218 71.6964L12.2724 71.5775C12.0652 71.6735 11.8516 71.7462 11.6289 71.7906L11.9114 71.7382C11.7067 71.7765 11.5008 71.7887 11.2937 71.7749L11.5798 71.8007C11.3934 71.7833 11.2113 71.7474 11.0358 71.6824L11.2964 71.7774C11.1659 71.726 11.0426 71.6612 10.9266 71.583L11.1509 71.7398C11.032 71.6565 10.9281 71.5594 10.8316 71.4515L11.0086 71.6602C10.8952 71.5269 10.8022 71.3823 10.7242 71.2239L10.8431 71.4745C10.7618 71.3006 10.7037 71.1203 10.6689 70.9338L10.7213 71.2162C10.6856 71.0114 10.6759 70.8054 10.6924 70.5981L10.6665 70.8842C10.6863 70.6925 10.7273 70.5076 10.7921 70.3268L10.6971 70.5874C10.7601 70.425 10.8391 70.2698 10.9395 70.1265L10.7827 70.3508C10.8515 70.2561 10.9313 70.174 11.0165 70.0968L10.8079 70.2738C10.9211 70.1797 11.0404 70.1035 11.1706 70.0373L10.92 70.1562C11.1118 70.0662 11.3102 70.0047 11.5201 69.9661L11.2377 70.0185C11.4996 69.9749 11.7631 69.9652 12.028 69.9842L11.7419 69.9583C11.986 69.9809 12.2259 70.0246 12.4619 70.0972C12.9975 70.2603 13.6413 69.8303 13.739 69.2925C13.8467 68.689 13.5045 68.1901 12.9344 68.0155L12.9264 68.0132Z" fill="#1E1E1E"/>
<path id="Vector_8" d="M10.2262 72.8674C9.99524 73.9655 9.85632 75.075 9.75428 76.1905C9.67068 77.0857 9.65138 78.0145 9.4836 78.8979L11.5911 79.0843C11.588 78.9067 11.5983 78.7912 11.5371 78.6006C11.2977 77.8408 10.2542 77.5472 9.70613 78.1792C9.43079 78.4953 9.27491 78.9626 9.06187 79.3254C8.36765 80.5209 7.63027 81.7995 7.54995 83.2121C7.50937 83.9092 7.77261 84.6758 8.30682 85.1448C8.62301 85.4227 9.00983 85.5902 9.42979 85.6281C9.68957 85.6499 9.92429 85.6389 10.1799 85.5721C10.4355 85.5053 10.0564 85.557 10.2133 85.5601C10.2814 85.5621 10.441 85.5102 10.5002 85.5467L10.3639 85.5374C10.4112 85.543 10.4587 85.5538 10.5036 85.5622C10.5485 85.5732 10.5908 85.5843 10.6358 85.5952C10.755 85.6289 10.8722 85.6756 10.9916 85.7145C11.3259 85.8217 11.6828 85.8521 12.0261 85.7602C12.9294 85.5141 13.4258 84.6153 13.4734 83.7323C13.521 82.8492 13.1355 81.9838 12.7542 81.2071C12.3728 80.4304 11.9902 79.6249 11.5501 78.8771C11.2662 78.3964 10.5296 78.2374 10.0743 78.5619C9.58604 78.9088 9.45537 79.5239 9.75906 80.0377C10.0628 80.5514 10.3247 81.1221 10.6036 81.6657C10.7158 81.8853 10.8332 82.1045 10.943 82.3268C10.845 82.1327 11.0073 82.4728 11.0276 82.5163C11.0862 82.652 11.1396 82.7881 11.1878 82.9243C11.2301 83.0452 11.2697 83.1662 11.3016 83.2902C11.3111 83.3237 11.3592 83.5149 11.3265 83.3753C11.2939 83.2356 11.3312 83.4195 11.3355 83.4559C11.344 83.526 11.3422 83.5993 11.3481 83.6696C11.3573 83.7528 11.3032 83.8259 11.3567 83.63C11.3432 83.6751 11.3306 83.741 11.3248 83.7857C11.3466 83.6357 11.4175 83.7003 11.3192 83.7781C11.2209 83.8559 11.401 83.6253 11.3388 83.7484C11.3053 83.8154 11.1811 83.8421 11.3093 83.789C11.5094 83.7091 11.1582 83.8562 11.3828 83.7412C11.6075 83.6261 11.2375 83.7636 11.4987 83.7044C11.7263 83.6519 11.4005 83.6724 11.6318 83.6981C11.8235 83.7179 11.6896 83.7059 11.647 83.6896C11.5673 83.662 11.4854 83.6423 11.4031 83.6148C10.941 83.4586 10.4687 83.3631 9.97869 83.4487C9.85424 83.4702 9.73027 83.5022 9.6057 83.5211C9.64197 83.5141 9.82143 83.4953 9.6288 83.5121C9.561 83.5153 9.42913 83.4901 9.68418 83.5226C9.61055 83.513 9.52404 83.4517 9.74327 83.5565C9.59902 83.49 9.80647 83.5666 9.79538 83.6089C9.79738 83.5957 9.67933 83.5307 9.69722 83.522C9.72008 83.5079 9.84108 83.7479 9.74934 83.5745C9.72652 83.5337 9.60506 83.3956 9.71299 83.5239C9.80169 83.6321 9.7275 83.5546 9.71153 83.4926C9.69915 83.4514 9.68913 83.4048 9.67413 83.3637C9.62643 83.2378 9.67643 83.5805 9.6912 83.4491C9.69459 83.4098 9.68196 83.3633 9.68262 83.3214C9.68054 83.2771 9.68629 83.2324 9.68422 83.1881C9.67739 83.042 9.64357 83.3808 9.6812 83.2353C9.71222 83.1162 9.72189 82.9877 9.75031 82.8687C9.77648 82.7577 9.80787 82.6465 9.84448 82.535C9.86278 82.4793 9.88369 82.4234 9.89939 82.3678C9.83551 82.5668 9.88084 82.4183 9.89975 82.3756C10.0029 82.1225 10.1142 81.8742 10.2359 81.628C10.4702 81.1597 10.734 80.7082 10.9976 80.2542C11.087 80.0984 11.1792 79.9451 11.2606 79.7845C11.2917 79.7229 11.3226 79.6588 11.351 79.5947C11.3627 79.5654 11.3769 79.5334 11.386 79.5042C11.4297 79.3767 11.5296 79.3903 11.2919 79.6158L10.8352 79.9116L10.8457 79.9111C10.4944 79.8334 10.1459 79.7582 9.79476 79.6832L9.46749 79.0006C9.46749 79.0006 9.46871 79.0267 9.46932 79.0397C9.46508 79.0608 9.4714 79.0841 9.46976 79.1051C9.46564 79.1288 9.46699 79.1575 9.46808 79.1809C9.49513 80.3741 11.3489 80.5566 11.5756 79.3673C11.7434 78.4838 11.7627 77.5551 11.8463 76.6599C11.9509 75.5442 12.0871 74.4322 12.3182 73.3367C12.4337 72.7903 12.0856 72.1636 11.5135 72.0597C10.9415 71.9557 10.3608 72.2808 10.2365 72.8643L10.2262 72.8674Z" fill="#1E1E1E"/>
<path id="Vector_9" d="M65.9981 59.971C66.9735 59.0035 67.9865 58.0815 69.0541 57.2174C70.1218 56.3532 71.1451 55.5949 72.1869 54.7807C72.6271 54.4352 72.7116 53.7011 72.3329 53.2787C71.9543 52.8563 71.302 52.7666 70.8309 53.1327C69.7891 53.9469 68.7259 54.7381 67.6981 55.5694C66.6704 56.4007 65.6175 57.3555 64.6421 58.3231C64.2473 58.7149 64.0867 59.3682 64.4961 59.8251C64.8536 60.2218 65.5742 60.3915 65.9981 59.971Z" fill="#1E1E1E"/>
<path id="Vector_10" d="M73.2204 50.8406C73.4486 50.7463 73.6808 50.6806 73.9243 50.6352L73.6419 50.6876C73.9038 50.644 74.167 50.6265 74.432 50.6481L74.1459 50.6222C74.3559 50.6412 74.5617 50.6838 74.7611 50.7555L74.5005 50.6605C74.6363 50.7143 74.7648 50.7789 74.8837 50.8622L74.6594 50.7054C74.7541 50.7741 74.8388 50.8512 74.9159 50.9365L74.7389 50.7278C74.8523 50.861 74.9453 51.0057 75.0233 51.1641L74.9044 50.9135C74.9857 51.0874 75.0438 51.2677 75.0814 51.4567L75.029 51.1743C75.0647 51.3791 75.0743 51.5851 75.0579 51.7924L75.0837 51.5063C75.0639 51.698 75.0254 51.8801 74.9607 52.0609L75.0556 51.8003C74.9928 51.9653 74.9136 52.1154 74.8132 52.2612L74.97 52.0369C74.884 52.1533 74.7895 52.2571 74.679 52.3537L74.8877 52.1767C74.7794 52.2654 74.6628 52.3414 74.5376 52.4048L74.7882 52.2859C74.6169 52.3671 74.4418 52.4223 74.2577 52.4544L74.5401 52.402C74.3352 52.4351 74.1289 52.4396 73.9217 52.4231L74.2078 52.4489C73.9819 52.4255 73.7599 52.3732 73.5472 52.2969L73.8078 52.3918C73.6428 52.329 73.4852 52.2553 73.3395 52.1576L73.5637 52.3144C73.4421 52.2286 73.3356 52.1316 73.239 52.0212L73.416 52.2298C73.3246 52.1191 73.2485 51.9998 73.1875 51.8694L73.3063 52.1199C73.2394 51.9741 73.1932 51.8247 73.1597 51.6668L73.2121 51.9492C73.1737 51.7419 73.1665 51.5332 73.1827 51.3207L73.1569 51.6068C73.1816 51.3521 73.2382 51.109 73.3263 50.8697L73.2313 51.1302C73.2663 51.0397 73.3065 50.949 73.3494 50.8607L73.1926 51.085C73.3567 50.9048 73.5208 50.7247 73.6848 50.5445C74.0602 50.1323 74.0576 49.4058 73.6143 49.0371C73.1711 48.6683 72.5097 48.6653 72.1069 49.1076C71.9453 49.285 71.7758 49.4602 71.6197 49.6426C71.3866 49.9123 71.2658 50.2917 71.1693 50.6308C71.0817 50.938 71.0474 51.2664 71.0414 51.5855C71.0296 52.1715 71.2034 52.8142 71.5474 53.2947C71.967 53.8841 72.5584 54.2354 73.2423 54.4387C73.8546 54.6217 74.5417 54.6158 75.1555 54.4381C75.8568 54.2328 76.4173 53.7544 76.7936 53.1383C77.5144 51.9519 77.2677 50.3665 76.3634 49.3607C75.9331 48.879 75.2589 48.6021 74.6261 48.5402C73.9278 48.4735 73.2201 48.5432 72.5662 48.8116C72.3045 48.918 72.0871 49.0745 71.9528 49.3317C71.8305 49.5674 71.7888 49.9065 71.8842 50.1582C72.0753 50.6668 72.6769 51.0673 73.2308 50.8402L73.2204 50.8406Z" fill="#1E1E1E"/>
<path id="Vector_11" d="M75.1828 48.1226C75.355 47.9917 75.1205 48.1954 75.1315 48.1831C75.1783 48.1264 75.2304 48.0776 75.2796 48.022C75.4041 47.8764 75.5224 47.7253 75.6346 47.5688C75.9457 47.1451 76.2325 46.7054 76.5072 46.2606C76.5414 46.207 76.7198 45.9084 76.6234 46.0745C76.703 45.941 76.7813 45.8041 76.8585 45.6695C77.016 45.3933 77.1697 45.1125 77.3186 44.8297C77.4675 44.547 77.6072 44.2659 77.7441 43.978C77.8093 43.8384 77.8745 43.6987 77.9373 43.558C78.0192 43.3659 77.9543 43.2985 77.9337 43.653L79.6275 44.6531C80.0217 44.2876 80.021 44.0829 79.9282 44.3073C79.8944 44.4064 79.9138 44.3409 79.9816 44.1087C79.9667 44.2102 79.9659 44.1389 79.9812 43.89L79.7786 43.3864L79.7862 43.3953L79.0716 42.9744C78.8455 42.9121 78.1675 43.3042 78.4164 43.1066C78.0772 43.3764 78.4283 43.0919 78.4882 43.0379C78.5293 43.0015 78.5693 42.9675 78.6118 42.9345C78.7367 42.8345 78.8702 42.741 79.0003 42.6488C79.3581 42.3955 79.7196 42.1466 80.065 41.8823C80.2574 41.7372 80.447 41.5853 80.6281 41.4269C80.7092 41.3565 80.7855 41.284 80.8666 41.2136C80.9901 41.1101 80.7509 41.3317 80.8645 41.2184C80.9162 41.1638 80.9692 41.1126 81.0209 41.058C81.1769 40.8917 81.3253 40.7166 81.4542 40.5274C81.4843 40.4835 81.5154 40.4372 81.5431 40.3922C81.5229 40.4262 81.4447 40.6029 81.5126 40.4303C81.529 40.3919 81.5488 40.3521 81.5628 40.3126C81.5863 40.2574 81.6783 40.1348 81.5863 40.2574C81.5094 40.358 81.5696 40.3099 81.5822 40.2272C81.6059 40.0784 81.5975 40.1912 81.5965 40.1936C81.5872 40.1953 81.5954 40.3095 81.592 40.1576C81.5894 40.0771 81.628 40.0197 81.5933 40.1213C81.5636 40.2108 81.6181 40.1829 81.574 40.0932C81.522 39.9887 81.6253 40.186 81.6239 40.1826C81.5379 40.0381 81.6459 40.1976 81.6744 40.224C81.5961 40.1679 81.5982 40.1631 81.6737 40.2123C81.7536 40.2577 81.7488 40.2557 81.6572 40.211C81.6195 40.2062 81.4514 40.1743 81.6737 40.2123C81.6099 40.2021 81.5492 40.1848 81.4874 40.1698C81.3139 40.1242 81.1345 40.079 80.9708 40.0035C80.7299 39.8895 80.4976 39.7422 80.2963 39.5685C80.1727 39.459 80.0545 39.3433 79.9319 39.2315C79.7471 39.0591 80.0633 39.2761 79.9532 39.2349C79.9628 39.239 80.243 39.2874 80.076 39.273L80.2375 39.2737C80.1552 39.2869 80.1562 39.2845 80.2405 39.2665C80.3544 39.2924 80.2724 39.2517 80.1943 39.2951C80.0587 39.3735 80.3439 39.1971 80.2217 39.2841C80.0995 39.371 80.3576 39.1518 80.2457 39.2545C80.219 39.2772 80.0972 39.4098 80.1991 39.2971C80.2946 39.1931 80.193 39.3115 80.1725 39.3596C80.1551 39.4004 80.1387 39.4388 80.1213 39.4797C80.0978 39.5349 80.0814 39.5932 80.0627 39.6505C80.1393 39.4107 80.06 39.7033 80.0529 39.74C80.0017 40.0332 79.9824 40.3315 79.9772 40.6301C79.9803 40.4498 79.9765 40.6185 79.9786 40.6534C79.9812 40.734 79.9813 40.8135 79.9852 40.8975C79.9889 41.0353 79.9985 41.1728 80.0046 41.3116C80.0398 41.9879 80.0309 42.6681 80.0987 43.3412C80.1547 43.8958 79.7588 44.4849 79.1734 44.5333C78.5879 44.5818 78.0407 44.201 77.9813 43.608C77.9002 42.8128 77.8993 42.0092 77.8707 41.2109C77.8395 40.3717 77.8516 39.5311 78.1291 38.727C78.4065 37.9228 79.1063 37.2533 79.9697 37.1587C80.4043 37.1112 80.8228 37.2414 81.174 37.4961C81.3563 37.6277 81.5037 37.8012 81.6774 37.9463C81.696 37.9627 81.8286 38.0845 81.8491 38.0762C81.8662 38.0693 81.633 37.984 81.8062 38.0437C81.847 38.0611 82.1074 38.1494 81.8611 38.0813C82.0168 38.1221 82.167 38.1493 82.3255 38.197C82.7306 38.3185 83.0843 38.5743 83.3365 38.9145C83.8143 39.5581 83.8148 40.4693 83.5145 41.1871C82.9781 42.4655 81.6902 43.3697 80.5953 44.1404C80.3834 44.2913 80.1653 44.4368 79.9596 44.5932C79.9216 44.6224 79.886 44.6526 79.848 44.6818C79.6197 44.8513 80.1491 44.3816 79.8353 44.6849C79.6222 44.8921 79.4003 45.0529 79.0929 45.095C78.3691 45.1952 77.7723 44.5577 77.8614 43.8492C77.907 43.4827 78.0881 43.1909 78.3526 42.9432C78.6582 42.6591 79.2044 42.6961 79.5298 42.8915C79.9097 43.1188 80.0727 43.5089 80.0464 43.9433C80.0318 44.184 79.8723 44.4651 79.7719 44.6806C79.6313 44.9839 79.4844 45.2818 79.3294 45.579C78.9868 46.2361 78.6164 46.8786 78.2303 47.5116C77.744 48.3061 77.2142 49.2695 76.456 49.8431C76.011 50.1814 75.283 50.0981 74.9629 49.6239C74.6428 49.1497 74.708 48.4907 75.1821 48.1308L75.1828 48.1226Z" fill="#1E1E1E"/>
<path id="Vector_12" d="M47.5286 77.1686C47.5155 77.1117 47.4972 77.055 47.4764 77.0011C47.4583 76.8373 47.4323 76.6738 47.3859 76.5192C47.2421 76.0162 46.8587 75.6421 46.4375 75.3534C46.0594 75.094 45.6165 74.9004 45.1598 74.8591C45.2843 74.7827 45.4085 74.7011 45.5273 74.6145C45.8937 74.3438 46.2865 74.0249 46.4864 73.6052C46.5696 73.4288 46.6158 73.241 46.6381 73.0492C46.7086 72.8786 46.7337 72.6893 46.7119 72.5021C46.7415 72.242 46.7317 71.9758 46.6751 71.7145C46.4781 70.8011 45.7322 70.0518 44.8329 69.8247C44.2615 69.6789 43.6461 69.6528 43.0549 69.6987C42.8406 69.6983 42.6263 69.7005 42.4095 69.7028C41.8739 69.7069 41.3413 69.7187 40.8064 69.7385C39.6321 69.7778 37.7887 69.9868 37.5118 70.2141C37.504 70.2144 37.2537 70.3385 37.246 70.3415C37.2381 70.3419 37.2303 70.3422 37.2225 70.3426C37.1434 70.2156 36.8944 70.256 36.8902 70.447C36.8365 73.322 37.1196 75.7996 37.1964 78.6711C37.219 79.4907 37.3118 79.7425 37.3751 80.2022C37.3954 80.3554 37.5554 80.7583 37.7674 80.8765C37.786 80.8834 37.9873 80.9969 38.1351 81.0265C38.6418 81.1309 39.7971 81.0194 40.958 80.973C42.098 80.9275 43.2184 80.8516 44.3545 80.7775C44.9434 80.7395 45.4153 80.6025 45.9641 80.3782C46.0154 80.3575 46.0727 80.3522 46.089 80.3096C46.1315 80.3233 46.2606 80.2336 46.333 80.1623C46.3667 80.1555 46.4001 80.1434 46.4325 80.1106C46.6148 79.9269 46.7521 79.8447 46.8751 79.6246C47.0934 79.3191 47.2471 78.9721 47.3239 78.6026C47.3519 78.5307 47.38 78.4615 47.4028 78.3898C47.4599 78.2146 47.5768 78.0314 47.5295 77.8585C47.5546 77.6117 47.5844 77.4116 47.5261 77.1713L47.5286 77.1686ZM39.4996 80.6386C39.4005 80.6433 39.3014 80.6479 39.1997 80.6527C39.1989 80.637 39.1982 80.6214 39.1922 80.606C39.2027 80.6055 39.2155 80.5997 39.2257 80.5939C39.3034 80.5799 39.3838 80.5656 39.4615 80.5516C39.4631 80.5855 39.4776 80.6161 39.4971 80.6414L39.4996 80.6386ZM46.625 75.9536C46.6935 76.021 46.757 76.0938 46.8154 76.1695C46.7923 76.1784 46.7721 76.1924 46.7521 76.2117C46.7272 76.239 46.7134 76.2788 46.71 76.3182C46.6977 76.3344 46.6908 76.3557 46.6866 76.3768C46.685 76.3978 46.6807 76.4189 46.6791 76.4399C46.679 76.4373 46.6788 76.4346 46.6786 76.4294C46.6611 76.391 46.6229 76.3562 46.5802 76.3373C46.6625 76.2525 46.625 76.1209 46.5387 76.0648C46.5537 76.0511 46.5689 76.0399 46.5839 76.0261C46.609 76.004 46.6209 75.9774 46.6273 75.9483L46.625 75.9536ZM45.8459 73.6586C45.8476 73.5828 45.8128 73.5086 45.7354 73.4756C45.6795 73.4521 45.6058 73.4425 45.5555 73.484C45.5504 73.4869 45.5479 73.4896 45.5429 73.4951C45.5177 73.5146 45.5007 73.5415 45.4887 73.5656C45.4629 73.572 45.4371 73.5784 45.4294 73.5814C45.3806 73.5994 45.3316 73.6147 45.2854 73.6326C45.2648 73.6388 45.2417 73.6477 45.221 73.6539C45.2088 73.6153 45.1837 73.5824 45.1513 73.5604L45.2262 73.5413C45.2959 73.5772 45.3787 73.5603 45.439 73.5078C45.4542 73.4966 45.4692 73.4829 45.4816 73.4692C45.6319 73.4413 45.7849 73.4158 45.9355 73.3931C46.0315 73.3781 46.1094 73.3118 46.1071 73.2073C46.1068 73.1995 46.1038 73.1918 46.1007 73.1815C46.1185 73.1702 46.1388 73.1588 46.1566 73.1475C46.1193 73.1885 46.1056 73.2309 46.1102 73.2725C46.0357 73.4119 45.945 73.5416 45.8435 73.6614L45.8459 73.6586ZM45.5583 73.9361C45.5583 73.9361 45.5385 73.9579 45.5311 73.9687C45.5227 73.956 45.5118 73.9461 45.5008 73.9361C45.5292 73.927 45.5601 73.9177 45.591 73.9084C45.581 73.9167 45.571 73.9276 45.5583 73.9361ZM46.6823 76.5652C46.6857 76.5807 46.6915 76.5935 46.6973 76.6063C46.6843 76.6069 46.6737 76.6048 46.6607 76.6054C46.6705 76.5919 46.6751 76.5786 46.6823 76.5652ZM43.2598 76.26C43.2598 76.26 43.2972 76.2765 43.2998 76.2764C43.7013 76.255 44.0578 76.2776 44.3913 76.5338C44.6868 76.7604 44.8287 77.0021 45.0263 77.3143C45.032 77.3245 45.0624 77.3597 45.0681 77.3699C45.0463 77.4075 45.0301 77.3952 45.0534 77.4464C45.1478 77.6772 45.0924 77.834 45.083 78.0801C45.083 78.0801 45.1056 78.1156 45.1031 78.1184C45.056 78.3401 45.0385 78.4141 44.9326 78.6073C44.9277 78.6153 44.8817 78.6384 44.877 78.6491C44.807 78.7726 44.7308 78.8206 44.6392 78.9294C44.3657 79.1173 44.1278 79.2826 43.7896 79.3167C43.1 79.383 42.4908 79.2102 42.1283 78.6129C41.9328 78.2875 41.8335 77.8975 41.8654 77.517C41.8797 77.4876 41.886 77.456 41.8817 77.4196C42.0652 77.3195 41.9095 77.0628 41.7235 77.1107C41.4341 76.9021 41.1372 76.7016 40.8356 76.5119C40.7925 76.4851 40.748 76.482 40.7093 76.4943C40.6525 76.4525 40.593 76.4108 40.5361 76.3664C40.4926 76.3319 40.4401 76.3265 40.3907 76.3314C40.3067 76.2674 40.2177 76.2088 40.136 76.1395C40.1007 76.1097 40.0557 76.0988 40.014 76.1007C39.9626 76.0639 39.8942 76.0541 39.8231 76.0992C39.7165 76.1669 39.5923 76.1936 39.4717 76.1862C39.3468 76.1424 39.2315 76.0798 39.1234 76.0039C39.0956 75.9686 39.0677 75.9307 39.0423 75.89C38.9972 75.7641 38.9774 75.6212 38.9694 75.504C39.0414 75.3673 39.1108 75.2308 39.1828 75.0941C39.2396 75.0784 39.2965 75.0653 39.3532 75.0496C39.4126 75.0337 39.4495 74.9849 39.4677 74.9266C39.5175 74.9295 39.5673 74.9324 39.6176 74.9457C39.6757 74.9587 39.7506 74.9395 39.7902 74.8932C40.1557 74.437 40.5187 73.9836 40.8842 73.5274C40.9633 73.4296 40.9269 73.3215 40.8538 73.2674C40.8494 73.1735 40.8215 73.0807 40.804 72.9849C40.7367 72.609 40.9794 72.2657 41.2276 71.9823C41.2451 71.9658 41.5151 71.8146 41.53 71.7983C41.8326 71.7292 41.9586 71.7416 42.1892 71.7544C42.2155 71.7584 42.2443 71.7596 42.2753 71.7503C42.2753 71.7503 42.2779 71.7502 42.2805 71.7501C42.2943 71.7651 42.3106 71.7801 42.332 71.7895C42.396 71.8179 42.4626 71.8435 42.5266 71.8719C42.564 71.8884 42.6058 71.8891 42.6447 71.882C42.9673 72.0734 43.0573 72.5998 43.039 72.9352C43.0221 73.2444 42.8978 73.5482 42.6831 73.7647C42.4337 73.9097 42.1333 73.9682 41.8507 73.9056C41.7794 73.8906 41.7102 73.92 41.6685 73.9768C41.6097 73.9508 41.5391 73.9489 41.4809 73.9908C41.4578 73.9998 41.4351 74.0165 41.4152 74.0383C41.3929 74.0655 41.3707 74.0927 41.3484 74.1199C41.0367 74.4403 40.755 74.788 40.5058 75.1603C40.4842 75.1457 40.4626 75.131 40.4385 75.119C40.2995 75.0524 40.1716 75.1681 40.1774 75.2907C40.1408 75.4022 40.2332 75.5338 40.3557 75.528C40.3726 75.5534 40.3893 75.5761 40.4164 75.5958C40.4946 75.647 40.5902 75.6791 40.6705 75.7198C40.8392 75.806 41.0055 75.8975 41.1669 75.9945C41.4922 76.1884 41.8055 76.4038 42.1014 76.6409C42.2427 76.7545 42.4858 76.7562 42.4664 76.6212C42.7245 76.4392 42.9546 76.3291 43.2597 76.2574L43.2598 76.26ZM46.8582 76.8601C46.8947 76.9708 46.9262 77.0843 46.9472 77.1984C46.9422 77.2038 46.9372 77.2093 46.9324 77.2174C46.914 77.2156 46.8959 77.2191 46.875 77.22C46.946 77.1174 46.8993 76.9575 46.7857 76.9315C46.8008 76.9177 46.8133 76.9067 46.8285 76.8955C46.841 76.8845 46.8482 76.8711 46.8554 76.8576L46.8582 76.8601ZM43.2333 70.7751C43.2333 70.7751 43.2594 70.7738 43.2724 70.7732C43.2594 70.7738 43.2464 70.7745 43.2308 70.7778C43.2308 70.7778 43.2308 70.7778 43.2307 70.7752L43.2333 70.7751ZM45.8753 72.834C45.8721 72.821 45.8663 72.8082 45.8605 72.7954C45.907 72.7854 45.9591 72.7804 46.0058 72.773C46.0088 72.7807 46.0168 72.7855 46.0224 72.7931C45.9733 72.8058 45.9243 72.8186 45.8753 72.834ZM37.6689 73.2935C37.7181 73.2834 37.7673 73.2732 37.8165 73.2631C37.9407 73.2364 38.0649 73.2097 38.189 73.1803C38.4217 73.1276 38.6518 73.0724 38.8847 73.0223C39.2572 72.9396 39.6304 72.8725 40.0078 72.8391C40.0078 72.8391 40.0078 72.8391 40.0104 72.839C39.9691 72.8488 39.9277 72.8586 39.889 72.8682C39.7414 72.8986 39.5965 72.9289 39.4488 72.9567C38.861 73.0757 38.2734 73.1973 37.6857 73.3162C37.6804 73.3165 37.6781 73.3218 37.6729 73.3221C37.6724 73.3116 37.6718 73.2986 37.6713 73.2882L37.6689 73.2935ZM37.5397 71.9274C37.5397 71.9274 37.5394 71.9221 37.5392 71.9169C37.5392 71.9169 37.5444 71.9167 37.5445 71.9193C37.5422 71.9246 37.5399 71.9326 37.5376 71.9379C37.5373 71.9327 37.5372 71.9301 37.537 71.9249L37.5397 71.9274ZM38.3209 71.9222C38.1905 71.9283 38.0503 71.9479 37.9172 71.9515C37.9117 71.9466 37.9038 71.9443 37.8983 71.9393C38.3459 71.8975 38.7935 71.8557 39.2385 71.8139C39.0621 71.8431 38.8883 71.8695 38.7119 71.8987C38.5815 71.9048 38.4512 71.9135 38.3209 71.9222ZM44.4707 71.7496C44.6782 71.7138 44.8857 71.6805 45.0935 71.6525C45.0961 71.6524 45.0989 71.6575 45.1042 71.6573C44.891 71.6829 44.6808 71.7137 44.4707 71.7496ZM44.8778 70.9517C44.8786 70.97 44.8795 70.9882 44.8829 71.0063C44.889 71.0244 44.8974 71.037 44.9085 71.0496C44.6911 71.0963 44.4736 71.1405 44.2562 71.1872C44.0398 71.1974 43.8234 71.2101 43.6047 71.2282C43.6142 71.2068 43.6209 71.183 43.6249 71.1566C44.0418 71.0718 44.4594 71.0052 44.8804 70.9516L44.8778 70.9517ZM38.073 71.4267C38.09 71.4547 38.1145 71.4771 38.1491 71.4885C37.9548 71.5263 37.7605 71.5642 37.569 71.6045C37.5638 71.6047 37.5613 71.6075 37.5562 71.6103C37.5591 71.5605 37.5619 71.5081 37.5648 71.4583C37.5807 71.4628 37.5965 71.4647 37.6147 71.4638C37.7683 71.4514 37.9194 71.4391 38.073 71.4267ZM37.6845 71.9493C37.6566 71.9689 37.629 71.9937 37.6175 72.0257C37.6081 72.0496 37.6015 72.0761 37.6001 72.1023C37.6001 72.1023 37.5949 72.1025 37.5923 72.1026C37.5885 72.0218 37.5849 71.9435 37.5785 71.8628C37.5987 71.9037 37.6368 71.9359 37.6845 71.9493ZM38.7313 72.2585L38.7522 72.2575C38.7783 72.2563 38.807 72.2549 38.833 72.2537C38.4312 72.3248 38.0268 72.396 37.6249 72.4644C37.6223 72.4645 37.6197 72.4647 37.6171 72.4648L37.6168 72.4596C37.9872 72.3874 38.3605 72.3202 38.7313 72.2585ZM37.6416 72.8217C38.4661 72.6786 39.2904 72.5329 40.1149 72.3898C40.1421 72.412 40.1792 72.4234 40.2159 72.4269C40.2115 72.4428 40.2042 72.4562 40.1998 72.4721C39.5922 72.5031 38.997 72.6303 38.4049 72.7677C38.1541 72.8265 37.9032 72.8827 37.6495 72.9337C37.6478 72.8972 37.6461 72.8607 37.6443 72.8242L37.6416 72.8217ZM37.6908 73.6506C37.7227 73.6621 37.7544 73.6685 37.7933 73.6614C38.0082 73.6174 38.223 73.5734 38.4379 73.5294C38.19 73.5932 37.9422 73.6597 37.6947 73.734C37.6934 73.7053 37.6922 73.6792 37.6908 73.6506ZM42.9971 71.6486C43.0032 71.6666 43.0145 71.6844 43.0256 71.6996C43.0102 71.7055 42.9948 71.7115 42.9821 71.7199C42.9602 71.6974 42.9357 71.6776 42.9113 71.6579C42.94 71.6565 42.9684 71.65 42.997 71.646L42.9971 71.6486ZM41.8949 74.293C41.8949 74.293 41.8999 74.2875 41.8997 74.2823C41.9075 74.2819 41.9153 74.2815 41.9207 74.2839C41.9102 74.2844 41.9025 74.2874 41.8922 74.2905L41.8949 74.293ZM45.4259 72.7243C45.4259 72.7243 45.4262 72.7321 45.4264 72.7347C45.1236 72.7985 44.818 72.8599 44.5152 72.9237C44.8178 72.8547 45.1205 72.7882 45.4233 72.7244L45.4259 72.7243ZM43.5434 70.8102C43.5268 70.7901 43.5078 70.7753 43.4812 70.7661C43.609 70.7601 43.7368 70.7541 43.8646 70.7482C43.7558 70.7689 43.6494 70.787 43.5408 70.8103L43.5434 70.8102ZM42.48 70.8756C42.0855 70.9333 41.6914 71.0014 41.2976 71.0773C41.2879 71.0359 41.2598 70.9954 41.2139 70.9636C41.2113 70.9637 41.2086 70.9612 41.2058 70.9587C41.63 70.918 42.0547 70.8903 42.48 70.8756ZM37.7171 74.1015C38.5703 73.8447 39.4418 73.6471 40.3216 73.5119C40.3216 73.5119 40.3217 73.5145 40.3244 73.5169C40.2725 73.5795 40.2204 73.6394 40.1684 73.702C40.1336 73.6853 40.0913 73.6742 40.0421 73.6844C39.2681 73.8434 38.494 74.0024 37.7226 74.1614C37.7216 74.1405 37.7206 74.1196 37.7196 74.0988L37.7171 74.1015ZM39.6447 74.129C39.6802 74.1613 39.7306 74.1772 39.79 74.1614C39.7613 74.2176 39.7641 74.2776 39.7925 74.3259C39.7381 74.3938 39.6863 74.459 39.632 74.5269C39.6322 74.4197 39.5379 74.3039 39.4008 74.3338C38.8652 74.4503 38.3255 74.5357 37.7791 74.5874C37.766 74.588 37.7585 74.5936 37.7481 74.5967C37.7469 74.5706 37.7457 74.5445 37.7446 74.521C38.3788 74.3894 39.0131 74.2604 39.6473 74.1289L39.6447 74.129ZM45.4616 79.134C45.4413 79.1454 45.4234 79.1541 45.403 79.1655C45.4148 79.1388 45.4292 79.112 45.4412 79.0879C45.4445 79.1034 45.4506 79.1215 45.4616 79.134ZM43.8656 79.8804C43.81 79.8647 43.7568 79.8462 43.7011 79.8279C43.816 79.8252 43.9279 79.8147 44.0419 79.7937C43.983 79.82 43.9244 79.8515 43.8682 79.8802L43.8656 79.8804ZM40.1882 76.6415C40.1648 76.6426 40.1391 76.6516 40.1157 76.6553C40.1079 76.6557 40.0975 76.6562 40.0895 76.6539C40.0838 76.6437 40.0807 76.6334 40.075 76.6232C40.0985 76.6221 40.1246 76.6209 40.1449 76.6095C40.1585 76.6193 40.1746 76.629 40.1882 76.6415ZM37.7786 75.1912C37.7908 75.2298 37.8129 75.2549 37.8426 75.2744C37.8243 75.2753 37.8034 75.2762 37.7852 75.2771C37.7838 75.2484 37.7825 75.2197 37.781 75.1884L37.7786 75.1912ZM41.539 78.5307C41.5092 78.5086 41.472 78.4947 41.4276 78.4967C41.4198 78.4971 41.4094 78.4976 41.4016 78.4979C41.4392 78.4648 41.4768 78.4291 41.517 78.3958C41.5243 78.4399 41.5317 78.4866 41.539 78.5307ZM39.896 77.6588C40.0507 77.6123 40.2684 77.5734 40.4179 77.4723C40.4141 77.5039 40.4207 77.5323 40.4325 77.5605C40.2536 77.5924 40.0747 77.6217 39.8985 77.6561L39.896 77.6588ZM41.4834 77.5088C41.4834 77.5088 41.4836 77.514 41.4837 77.5166C41.4699 77.5564 41.4536 77.599 41.4398 77.6389C41.4329 77.6026 41.4183 77.5693 41.3936 77.5443C41.4163 77.5276 41.4417 77.5107 41.4644 77.494C41.4725 77.4988 41.4779 77.5038 41.486 77.5086L41.4834 77.5088ZM38.2424 75.3289C38.2424 75.3289 38.2419 75.3185 38.2417 75.3132C38.2419 75.3185 38.2422 75.3237 38.2424 75.3289ZM38.5219 75.9954C38.5451 75.9891 38.571 75.9852 38.5943 75.9789C38.6038 76.0151 38.6187 76.0536 38.6334 76.0895C38.5999 76.0989 38.5688 76.1056 38.5353 76.115C38.5465 76.0753 38.5419 76.0337 38.5219 75.9954ZM37.8764 77.0606C37.8764 77.0606 37.8738 77.0607 37.8712 77.0608L37.871 77.0556C37.871 77.0556 37.8736 77.0555 37.8762 77.0554L37.8764 77.0606ZM38.4624 76.8476C38.4668 76.8291 38.4685 76.8107 38.4675 76.7899C38.7357 76.712 39.0102 76.6573 39.2884 76.626C39.0089 76.6862 38.7327 76.7592 38.4624 76.8476ZM38.2557 75.2786C38.2557 75.2786 38.2605 75.2679 38.2628 75.2626C38.2631 75.2678 38.2581 75.2733 38.2557 75.2786ZM37.8484 76.5731C37.8724 76.5825 37.8988 76.5891 37.93 76.585C37.9326 76.5849 37.9378 76.5846 37.9404 76.5845C37.9122 76.5963 37.8813 76.6056 37.8505 76.6175C37.8498 76.6018 37.8491 76.5888 37.8484 76.5731ZM37.9736 77.4063C38.0223 77.3857 38.0687 77.3705 38.1175 77.3525C38.6213 77.227 39.1251 77.1015 39.6288 76.9734C39.6454 76.9936 39.6671 77.0108 39.6937 77.02C39.7222 77.071 39.7736 77.1078 39.8488 77.0964C39.8619 77.0958 39.8748 77.0926 39.8877 77.0894C39.8881 77.0972 39.8883 77.1024 39.8887 77.1103C39.6681 77.1441 39.4504 77.183 39.2329 77.2272C39.2329 77.2272 39.2303 77.2273 39.2277 77.2274C39.2277 77.2274 39.2251 77.2275 39.2225 77.2277C38.8108 77.3122 38.4053 77.4149 38.0032 77.5356C37.9413 77.5542 37.9068 77.5976 37.8933 77.6453C37.8898 77.5696 37.8861 77.4914 37.8826 77.4158C37.9089 77.4198 37.9403 77.4209 37.9736 77.4063ZM37.9072 78.055C38.156 77.9519 38.4104 77.8589 38.6651 77.7738C38.6598 77.8264 38.6754 77.8805 38.7086 77.9208C38.4398 77.9856 38.1739 78.0556 37.9081 78.1281C37.907 78.1046 37.9057 78.0786 37.9046 78.0551L37.9072 78.055ZM39.8965 78.1162C39.9663 78.0998 40.0006 78.0512 40.0139 77.9983C40.1511 77.971 40.286 77.949 40.4234 77.9242C40.4401 77.947 40.4618 77.9643 40.491 77.9734C40.0647 78.0795 39.6384 78.1857 39.2125 78.2997C39.4394 78.2342 39.669 78.1686 39.899 78.1134L39.8965 78.1162ZM41.7584 79.1425C41.7468 79.062 41.6886 78.9916 41.5944 78.9881C41.5758 78.9263 41.5346 78.8838 41.4815 78.8654C41.4991 78.8515 41.5169 78.8402 41.5371 78.8262C41.5675 78.8038 41.5871 78.7768 41.5988 78.7475C41.645 78.8969 41.7116 79.0349 41.8087 79.1559C41.7953 79.1486 41.7794 79.1442 41.761 79.1424L41.7584 79.1425ZM39.7176 76.5824L39.666 76.5953C39.666 76.5953 39.6632 76.5928 39.6605 76.5903C39.6788 76.5895 39.694 76.5809 39.7096 76.5776C39.7096 76.5776 39.7148 76.5773 39.7175 76.5798L39.7176 76.5824ZM39.4126 76.5993C39.4126 76.5993 39.4306 76.5932 39.4382 76.5877C39.4434 76.5874 39.4486 76.5872 39.4514 76.5897C39.4383 76.5903 39.4255 76.5961 39.4125 76.5967L39.4126 76.5993ZM37.8307 75.6357C37.84 75.6666 37.857 75.6945 37.8791 75.7196C37.8504 75.721 37.8273 75.7299 37.8096 75.7438C37.808 75.7099 37.8063 75.6734 37.8047 75.6395C37.8126 75.6391 37.823 75.6386 37.8308 75.6383L37.8307 75.6357ZM41.9801 79.4118C41.931 79.4246 41.8846 79.4372 41.8353 79.4447C41.8824 79.3903 41.9018 79.3031 41.8778 79.2363C41.9408 79.2987 42.0062 79.3557 42.0795 79.4124C42.0503 79.4033 42.0187 79.3996 41.9827 79.4117L41.9801 79.4118ZM37.8934 74.9636C37.8261 74.9772 37.7846 75.0419 37.7748 75.1103C37.7722 75.0555 37.7695 74.9982 37.767 74.9434C37.7774 74.9429 37.7829 74.9479 37.7933 74.9474C37.9755 74.931 38.1573 74.9068 38.3391 74.8827C38.1915 74.9105 38.0437 74.9357 37.896 74.9635L37.8934 74.9636ZM39.7036 79.3013C39.9124 79.2393 39.9063 79.2187 40.1151 79.1566C40.2156 79.1258 40.3162 79.0976 40.4167 79.0667C40.4656 79.0514 40.5172 79.0359 40.5662 79.0232L40.6281 79.0046C40.6539 79.053 40.6974 79.0902 40.7577 79.0926C40.7581 79.103 40.7665 79.1131 40.7722 79.1233C40.2377 79.2084 39.9243 79.2701 39.3998 79.3992C39.5029 79.3682 39.6033 79.3348 39.7064 79.3038L39.7036 79.3013ZM42.1395 79.6893C42.1395 79.6893 42.1368 79.6894 42.1342 79.6895C42.2391 79.6402 42.2303 79.5648 42.1742 79.4812C42.304 79.5744 42.4572 79.6091 42.5941 79.6863C42.4394 79.6752 42.2777 79.6828 42.1395 79.6893ZM38.1899 78.9017C38.5135 78.8343 38.5813 78.9984 38.9078 78.9387C38.6826 78.9858 38.7134 78.8066 38.4883 78.8537C38.3304 78.8872 38.3387 79.0646 38.4368 79.1515C38.4136 79.1578 38.3905 79.1667 38.3673 79.173C38.1895 79.2284 38.2291 79.4592 38.3647 79.5103C38.3106 79.5259 38.2564 79.5415 38.205 79.5596C38.2026 79.3402 38.1976 79.1209 38.1925 78.9015L38.1899 78.9017ZM41.1794 79.5041C41.1062 79.5598 41.105 79.5887 41.1263 79.653C41.1164 79.6665 41.1092 79.6799 41.1047 79.6958C41.0943 79.6963 41.0865 79.6967 41.076 79.6972C41.0578 79.698 41.045 79.7038 41.0295 79.7072C41.0493 79.6279 40.9896 79.581 40.9093 79.5403C41.0002 79.5282 41.0884 79.5136 41.1793 79.5015L41.1794 79.5041ZM45.601 77.3633C45.601 77.3633 45.6036 77.3631 45.6062 77.363C45.6062 77.363 45.6062 77.363 45.6036 77.3631L45.601 77.3633ZM42.2736 74.6778C42.2736 74.6778 42.2727 74.6569 42.2723 74.6491C42.263 74.6181 42.2463 74.5954 42.2271 74.578C42.2582 74.5713 42.2868 74.5674 42.3178 74.5607C42.3497 74.5723 42.384 74.5785 42.4252 74.5661C43.0601 74.3927 43.6979 74.2269 44.3359 74.0638C44.3364 74.0742 44.3369 74.0847 44.3399 74.095C43.6512 74.2892 42.9623 74.4809 42.2761 74.675L42.2736 74.6778ZM44.6721 73.2614C44.6229 73.2715 44.5953 73.2963 44.5759 73.3286C44.1677 73.4287 43.7594 73.5288 43.351 73.6263C43.3779 73.5885 43.4048 73.548 43.4263 73.5052C43.4368 73.5047 43.4447 73.5069 43.455 73.5039C43.9727 73.396 44.4905 73.2908 45.0082 73.1829C45.0083 73.1855 45.0085 73.1881 45.0086 73.1907C44.8973 73.2142 44.7833 73.2353 44.672 73.2588L44.6721 73.2614ZM38.2201 79.883C38.2201 79.883 38.246 79.8766 38.2561 79.8709C38.2797 79.8724 38.3033 79.8739 38.3292 79.8674C39.0489 79.6639 39.5037 79.7759 40.2399 79.6474C39.5855 79.793 39.2034 79.6697 38.5489 79.8153C38.4377 79.8415 38.4082 79.9369 38.4356 80.0193C38.379 80.0376 38.3197 80.0561 38.2632 80.077C38.2452 80.0831 38.2326 80.0941 38.2199 80.1026C38.2191 80.0294 38.2209 79.9561 38.2201 79.883ZM45.5572 77.0412C45.5244 77.0663 45.505 77.0985 45.4961 77.1329C45.4703 77.0845 45.4419 77.0361 45.4111 76.9905C45.3773 76.9398 45.3436 76.8891 45.3097 76.8358C45.3149 76.8356 45.3176 76.8355 45.3228 76.8352C45.3356 76.8294 45.3485 76.8262 45.3613 76.8204C45.3558 76.9278 45.4472 77.0359 45.5895 77.0057C45.5947 77.0055 45.6025 77.0051 45.6076 77.0022C45.59 77.0161 45.5749 77.0299 45.5572 77.0412ZM45.2127 76.4928C45.1691 76.5105 45.1417 76.5405 45.1224 76.5754C45.0835 76.5249 45.0471 76.4744 45.0057 76.4266C45.0339 76.4149 45.0648 76.4056 45.093 76.3938C45.1162 76.4424 45.1598 76.4795 45.2101 76.4929L45.2127 76.4928ZM42.638 75.931C42.6468 75.894 42.6449 75.8549 42.6328 75.8188C43.0526 75.7417 43.4722 75.6594 43.8886 75.5667C43.9124 75.6283 43.9669 75.6754 44.0526 75.6636C44.154 75.651 44.2552 75.6358 44.3564 75.6206C44.3108 75.6515 44.2651 75.6798 44.2195 75.7107C43.6851 75.6285 43.1293 75.7041 42.638 75.931ZM46.2841 72.2973C46.2841 72.2973 46.2841 72.2973 46.2842 72.2999L46.2841 72.2973ZM37.3837 74.517C37.458 75.8256 37.5244 77.1346 37.5596 78.445C37.5794 79.2046 37.9989 79.5117 37.9953 80.2725C37.9766 80.2655 37.977 80.2734 37.9561 80.2743C37.7753 78.5865 37.4881 76.5822 37.381 74.5145L37.3837 74.517ZM38.2059 80.3045C38.2275 80.3191 38.2517 80.3337 38.2805 80.335C38.257 80.3361 38.2312 80.3425 38.2077 80.3436C38.2071 80.3306 38.2065 80.3175 38.2057 80.3019L38.2059 80.3045ZM38.3557 80.3236C38.4149 80.3025 38.4741 80.2841 38.5359 80.2629C38.5392 80.2784 38.5477 80.2937 38.5536 80.3065C38.4781 80.3126 38.3999 80.3189 38.3246 80.3277C38.335 80.3272 38.3454 80.3267 38.3583 80.3235L38.3557 80.3236ZM43.0764 80.2179C43.1027 80.2218 43.2049 80.2275 43.2681 80.2376C43.1977 80.2409 43.1246 80.2443 43.0542 80.2476C43.0617 80.2395 43.069 80.2286 43.0764 80.2179ZM46.2164 72.0234C46.2274 71.9785 46.2199 71.9292 46.1968 71.8832C46.1911 71.873 46.1828 71.863 46.1771 71.8528C46.1975 71.8414 46.215 71.8249 46.2272 71.806C46.2415 71.889 46.2532 71.9721 46.2622 72.0527C46.2486 72.0402 46.2324 72.0305 46.2164 72.0234ZM46.1437 71.5302C46.1437 71.5302 46.1428 71.512 46.145 71.5014C46.1481 71.5117 46.1512 71.5221 46.1543 71.5324C46.1516 71.5325 46.1464 71.5327 46.1437 71.5302ZM46.0143 71.335C45.9457 71.32 45.8773 71.3101 45.809 71.3028C45.8057 71.2899 45.8024 71.2744 45.794 71.2617C45.794 71.2617 45.7912 71.2592 45.7885 71.2567C45.8649 71.214 45.8941 71.1107 45.8641 71.0284C45.8687 71.0151 45.8707 71.002 45.8726 70.9862C45.9672 71.1098 46.044 71.2422 46.1057 71.3883C46.0836 71.3632 46.0566 71.3435 46.0143 71.335ZM45.6385 70.7881C45.6007 70.7062 45.5129 70.6737 45.4249 70.6909C45.4092 70.6916 45.3938 70.6976 45.3809 70.7008C45.3859 70.6953 45.391 70.6925 45.396 70.687C45.4259 70.6569 45.4425 70.6195 45.4435 70.5855C45.5029 70.6271 45.5623 70.6662 45.6193 70.7131C45.6465 70.7354 45.666 70.7606 45.6906 70.783C45.6749 70.7837 45.6567 70.7846 45.641 70.7853L45.6385 70.7881ZM45.0995 70.3846C45.0656 70.3862 45.0315 70.3826 44.9976 70.3841C44.9888 70.3637 44.9801 70.3458 44.9637 70.3308C45.009 70.3496 45.0542 70.3658 45.0997 70.3872L45.0995 70.3846ZM41.5382 70.4649C41.5074 70.4768 41.4873 70.4934 41.4699 70.5125C41.4691 70.4969 41.4631 70.4789 41.4572 70.4661C41.4598 70.4659 41.4651 70.4657 41.4677 70.4656C41.4911 70.4645 41.5146 70.4634 41.5356 70.465L41.5382 70.4649ZM45.8129 75.4663C45.8129 75.4663 45.8025 75.4694 45.7975 75.4722C45.7934 75.441 45.7763 75.4105 45.7567 75.3826C45.802 75.4014 45.8448 75.4229 45.8902 75.4443C45.8642 75.4456 45.8383 75.452 45.8129 75.4663ZM45.5681 75.3183C45.4857 75.3456 45.4006 75.3705 45.3183 75.3979C45.3447 75.347 45.3421 75.2922 45.3163 75.2438C45.406 75.2605 45.496 75.285 45.5836 75.3149C45.5784 75.3152 45.5732 75.3154 45.568 75.3157L45.5681 75.3183ZM45.1511 74.3942C45.1511 74.3942 45.1397 74.3738 45.134 74.3637C45.1494 74.3577 45.1648 74.3518 45.1776 74.3459C45.2142 74.3468 45.2504 74.3373 45.2803 74.3072C45.3215 74.2922 45.3599 74.2747 45.401 74.2597C45.3202 74.321 45.2394 74.3823 45.1558 74.4384C45.1551 74.4228 45.1543 74.4071 45.1511 74.3942ZM38.8033 70.5562C38.4158 70.5978 37.9976 70.8762 37.6105 70.9256C37.6121 70.9046 37.6136 70.881 37.6152 70.8601C38.0035 70.8341 38.4227 70.5766 38.811 70.5532C38.8084 70.5533 38.8058 70.5535 38.8032 70.5536L38.8033 70.5562ZM44.948 80.3342C44.948 80.3342 44.9611 80.3362 44.9688 80.3332C44.9845 80.3325 44.9999 80.3265 45.0154 80.3232C45.0154 80.3232 45.0285 80.3226 45.0335 80.3197C45.1968 80.2886 45.3541 80.2446 45.5054 80.1827C45.5063 80.2009 45.5099 80.2217 45.5184 80.237C45.33 80.2876 45.1385 80.3279 44.9465 80.3578C44.9461 80.35 44.9483 80.342 44.9505 80.3315L44.948 80.3342ZM46.3773 75.743C46.349 75.7522 46.3206 75.7614 46.2924 75.7732C46.2599 75.691 46.1783 75.6243 46.078 75.6577C46.089 75.6154 46.0818 75.5713 46.0592 75.5358C46.0672 75.5406 46.0726 75.543 46.0807 75.5478C46.1801 75.6059 46.2799 75.6718 46.3773 75.743ZM42.6668 70.0619C42.5838 70.0762 42.501 70.0932 42.4207 70.11C42.1455 70.0941 41.8712 70.0965 41.5974 70.1093C40.5936 70.1066 39.5894 70.1509 38.5859 70.2109C39.9432 70.1161 41.3052 70.0654 42.6668 70.0619ZM40.6725 80.6256C40.9354 80.6029 41.1985 80.5827 41.4616 80.5652C41.4621 80.5756 41.4626 80.586 41.4683 80.5962C41.2023 80.6087 40.9387 80.6158 40.6726 80.6282L40.6725 80.6256Z" fill="#EC0047"/>
</g>
<g id="Group 44">
<path id="Vector_13" d="M39.3282 6.75955C31.068 7.74838 19.9776 10.1625 14.4089 13.2185C7.13066 17.2149 4.30451 23.5924 4.7262 31.6447C4.95631 36.0455 5.5672 39.6764 6.85654 43.905C9.83217 53.6703 17.393 58.4705 27.5353 57.5847C38.9414 56.5884 49.1383 54.8707 60.2476 52.1078C70.5906 49.5339 74.0785 40.5464 73.019 31.2697C72.0539 22.8158 70.6281 13.28 62.6663 9.00987C55.9191 5.39174 47.4018 5.79345 39.3286 6.76213L39.3282 6.75955Z" fill="#E8E8E8"/>
<path id="Vector_14" d="M39.0924 4.62423C35.6614 5.03617 32.25 5.61412 28.8707 6.33512C25.4784 7.05805 22.099 7.91898 18.8197 9.06057C16.0145 10.036 13.3008 11.2696 10.9268 13.0779C8.55284 14.8862 6.66817 17.1755 5.40876 19.8488C4.14934 22.5221 3.62411 25.373 3.55654 28.2477C3.46103 32.1324 3.96608 36.0959 4.873 39.8697C5.66538 43.1618 6.70446 46.3561 8.55864 49.2117C10.0321 51.4828 12.0126 53.456 14.3372 54.8549C16.7456 56.3019 19.4373 57.1731 22.2226 57.5075C25.8142 57.9374 29.462 57.4217 33.0323 57.0232C41.3908 56.0909 49.6776 54.6281 57.8606 52.6846C59.6628 52.2558 61.4855 51.8581 63.2086 51.1666C64.6155 50.6017 65.9609 49.8559 67.1767 48.9501C69.4404 47.2692 71.2022 44.9878 72.3649 42.4266C73.5277 39.8655 74.0676 37.1127 74.1659 34.3549C74.2759 31.2706 73.8316 28.1692 73.3541 25.1282C72.3789 18.9463 70.4785 12.3699 65.2859 8.39706C62.4975 6.26521 59.0294 5.09338 55.6067 4.48763C51.9345 3.8375 48.1643 3.85416 44.4534 4.10746C42.6605 4.22868 40.8747 4.41484 39.0928 4.62681C38.5379 4.69424 38.0883 5.28709 38.1953 5.8413C38.309 6.42352 38.8158 6.80949 39.4098 6.73883C41.2304 6.52104 43.0557 6.33424 44.8855 6.21276C45.7979 6.1524 46.7125 6.10754 47.6255 6.08669C47.7385 6.08294 47.8544 6.08138 47.9677 6.08021C47.7676 6.08384 48.1416 6.07787 48.1365 6.07865C48.3262 6.07657 48.5134 6.07488 48.7036 6.07538C49.1921 6.07599 49.6818 6.08435 50.1722 6.09787C51.9073 6.15429 53.6412 6.30857 55.3526 6.61144C55.781 6.68706 56.2085 6.7734 56.6319 6.86825C56.8069 6.908 56.9822 6.95034 57.1601 6.99228C57.5052 7.07514 56.9699 6.93898 57.311 7.03035C57.4512 7.06739 57.5888 7.10482 57.7268 7.14483C58.5537 7.37715 59.3658 7.6513 60.1612 7.97282C60.5237 8.11907 60.8852 8.27602 61.2405 8.44447C61.4339 8.53689 61.6273 8.62931 61.8188 8.72728C61.9133 8.77646 62.0104 8.82525 62.1049 8.87443C62.1364 8.89083 62.4879 9.08626 62.3143 8.98557C62.9642 9.35797 63.5864 9.77414 64.1756 10.2348C64.4723 10.4702 64.7624 10.7144 65.0412 10.9709C65.1114 11.0343 65.179 11.0981 65.2467 11.1618C65.0987 11.0203 65.2471 11.1644 65.2843 11.2011C65.4271 11.3433 65.5677 11.4885 65.7061 11.6367C66.2098 12.1789 66.674 12.7561 67.0999 13.3601C67.2946 13.6371 67.4798 13.9209 67.6601 14.208C67.5287 14.0007 67.6919 14.2613 67.7091 14.2878C67.7554 14.3679 67.8044 14.4477 67.8481 14.5283C67.9554 14.7154 68.0605 14.9056 68.163 15.0961C68.5159 15.7586 68.829 16.4377 69.1127 17.1317C69.3964 17.8257 69.6337 18.4923 69.8542 19.1879C69.9135 19.3717 69.9698 19.5534 70.0239 19.738C70.0337 19.7682 70.1219 20.0744 70.0512 19.8316C70.0784 19.9252 70.1027 20.0166 70.1299 20.1102C70.2334 20.4827 70.3295 20.859 70.4226 21.2332C71.1541 24.2255 71.5483 27.2922 71.8934 30.3478C71.9726 31.0513 72.0285 31.7584 72.0557 32.4671C72.0636 32.6428 72.0663 32.8193 72.0712 32.9928C72.0667 32.7163 72.0713 33.0113 72.0702 33.0563C72.0707 33.1302 72.0708 33.2015 72.0713 33.2753C72.0702 33.6372 72.0613 34.0002 72.0439 34.3592C71.982 35.6885 71.8142 37.0153 71.5206 38.3134C71.4841 38.4746 71.4454 38.6388 71.4037 38.8009C71.4697 38.5375 71.4 38.812 71.3878 38.8534C71.3655 38.9333 71.3431 39.0132 71.3208 39.0931C71.2311 39.4102 71.1307 39.7263 71.0243 40.0379C70.8134 40.6557 70.567 41.2655 70.2887 41.8564C70.1629 42.1261 70.0285 42.3918 69.8856 42.6535C69.8652 42.6935 69.727 42.9334 69.8608 42.6995C69.8211 42.7688 69.7817 42.8407 69.7394 42.9104C69.6449 43.0724 69.5452 43.2352 69.4452 43.3955C69.0972 43.944 68.7143 44.4714 68.3014 44.9743C68.1092 45.2064 67.9132 45.4312 67.7083 45.6494C67.679 45.6828 67.484 45.8784 67.6695 45.6895C67.6123 45.7483 67.5551 45.807 67.4953 45.8661C67.3784 45.984 67.2581 46.0971 67.1378 46.2102C66.6444 46.6697 66.1198 47.0969 65.5683 47.486C65.2869 47.6866 64.9961 47.8781 64.7013 48.0596C64.8973 47.9404 64.723 48.0458 64.6744 48.0742C64.6112 48.1101 64.5483 48.1486 64.4825 48.1848C64.3027 48.2884 64.1195 48.3872 63.9333 48.4837C63.277 48.8251 62.5986 49.1249 61.9063 49.3846C61.5737 49.5084 61.2371 49.6223 60.8992 49.7285C60.806 49.7583 60.7098 49.7859 60.6163 49.8132C60.8488 49.744 60.53 49.8367 60.5072 49.8427C60.2588 49.9117 60.0067 49.9733 59.7571 50.0345C58.7645 50.2811 57.7707 50.52 56.7762 50.7538C54.741 51.2308 52.7011 51.6769 50.6519 52.0953C46.6709 52.9066 42.6666 53.5973 38.6411 54.1644C36.5858 54.4544 34.5254 54.7108 32.4607 54.9388C30.3961 55.1668 28.5201 55.385 26.5447 55.5045C26.1705 55.5264 25.798 55.5427 25.4241 55.5486C25.6873 55.5435 25.379 55.5475 25.3421 55.5477C25.2815 55.5489 25.2206 55.5475 25.16 55.5487C24.9488 55.5487 24.7343 55.5439 24.5223 55.5388C23.8143 55.5183 23.1043 55.4664 22.4021 55.3791C21.6999 55.2917 21.0493 55.1782 20.3799 55.0278C20.2434 54.9982 20.1088 54.9629 19.9719 54.9307C19.6979 54.8635 20.1895 54.9904 19.9168 54.9152C19.8369 54.8928 19.757 54.8705 19.6771 54.8482C19.36 54.7585 19.0444 54.6606 18.7331 54.5569C18.1183 54.3482 17.517 54.1058 16.9294 53.8323C16.6397 53.6962 16.3514 53.552 16.0701 53.4015C16.0297 53.3785 15.7906 53.2455 16.0275 53.3815C15.9812 53.3541 15.9352 53.3294 15.8888 53.302C15.7272 53.2101 15.5674 53.1126 15.4101 53.0148C14.8687 52.6789 14.3462 52.3111 13.8486 51.9159C13.618 51.734 13.3944 51.5458 13.1752 51.3516C13.0537 51.2458 12.937 51.1366 12.8177 51.0278C12.7839 50.9959 12.5887 50.8034 12.7809 50.9937C12.7036 50.9182 12.6262 50.8426 12.5515 50.7667C11.64 49.8475 10.8341 48.8227 10.137 47.7313C10.0918 47.6589 10.0466 47.5865 10.0014 47.514C10.1408 47.7387 9.98763 47.4924 9.96891 47.4556C9.88072 47.3078 9.79473 47.157 9.70874 47.0062C9.53599 46.6995 9.37356 46.3912 9.2181 46.0766C8.89635 45.4279 8.6066 44.7638 8.34668 44.0874C7.03648 40.6697 6.29855 36.9312 5.92649 33.2382C5.82559 32.2316 5.75051 31.2212 5.70422 30.209C5.69634 30.0333 5.68845 29.8576 5.68534 29.6786C5.68404 29.5996 5.68236 29.518 5.67848 29.4394C5.68508 29.6945 5.67731 29.3788 5.67744 29.3445C5.67457 28.9383 5.67983 28.5336 5.69543 28.1273C5.74981 26.7305 5.91792 25.3351 6.23321 23.9703C6.25218 23.8856 6.27412 23.8032 6.29309 23.7185C6.35904 23.4366 6.23295 23.9334 6.30961 23.6526C6.35349 23.4876 6.39996 23.3223 6.44681 23.1595C6.54309 22.8335 6.6479 22.5115 6.76084 22.1909C6.98529 21.558 7.24861 20.9376 7.54639 20.3359C7.60938 20.2103 7.67276 20.0872 7.73614 19.9642C7.77512 19.8897 7.81449 19.8178 7.85606 19.7429C7.99017 19.4931 7.74182 19.9317 7.88742 19.688C8.06401 19.387 8.24356 19.0881 8.43719 18.795C8.80288 18.2412 9.20382 17.7111 9.63446 17.2029C9.74689 17.0725 9.85933 16.9421 9.97473 16.8139C10.0337 16.7496 10.0901 16.6857 10.1495 16.624C10.1744 16.5965 10.3783 16.389 10.1993 16.569C10.4468 16.318 10.6976 16.0718 10.9577 15.8348C11.4941 15.3451 12.0588 14.8854 12.6495 14.4589C12.9305 14.2556 13.2153 14.0598 13.5038 13.8713C13.6648 13.7653 13.8261 13.6618 13.9909 13.5632C13.7927 13.6853 14.0685 13.5172 14.0879 13.5064C14.2019 13.4391 14.3137 13.3748 14.4277 13.3076C14.9845 12.989 15.5533 12.6978 16.1333 12.4285C17.424 11.8283 18.7582 11.3244 20.1075 10.8685C20.8663 10.6121 21.6274 10.3711 22.3961 10.1449C22.4948 10.1168 22.5932 10.0862 22.6919 10.0582C22.4694 10.1233 22.7981 10.0265 22.8161 10.0237C22.9831 9.97493 23.1504 9.92871 23.3177 9.88248C23.7584 9.75825 24.2025 9.63881 24.647 9.52194C27.9798 8.64952 31.3609 7.95731 34.7594 7.39976C36.3081 7.14623 37.8614 6.92368 39.4197 6.7347C39.9746 6.66727 40.4246 6.077 40.3172 5.52021C40.2099 4.96342 39.6967 4.55202 39.1027 4.62268L39.0924 4.62423Z" fill="#1E1E1E"/>
<path id="Vector_15" d="M12.8254 34.0906C13.6135 42.3149 19.0314 48.1232 27.3866 47.9781C34.0882 47.8621 42.5939 46.187 49.2099 45.1308C54.6784 44.2573 59.7013 41.9801 62.2671 38.0547C63.9953 35.4088 65.1612 30.9516 64.5636 26.9518C62.8517 15.492 53.0559 13.5141 48.7951 13.446C44.5159 13.378 39.9545 13.9279 35.7288 14.5859C29.6431 15.5335 22.7442 16.9912 18.373 20.6728C17.4704 21.4313 12.0014 25.4861 12.828 34.0902L12.8254 34.0906Z" fill="#1E1E1E"/>
<path id="Vector_16" d="M32.4665 27.8822L30.6875 28.1491L30.9545 29.9281L32.7334 29.6611L32.4665 27.8822Z" fill="white"/>
<path id="Vector_17" d="M32.9977 29.9835L31.2188 30.2505L31.4857 32.0294L33.2647 31.7624L32.9977 29.9835Z" fill="white"/>
<path id="Vector_18" d="M36.0368 27.3465L34.2578 27.6134L34.5248 29.3924L36.3037 29.1254L36.0368 27.3465Z" fill="white"/>
<path id="Vector_19" d="M36.8415 29.4061L35.0625 29.6731L35.3295 31.452L37.1084 31.185L36.8415 29.4061Z" fill="white"/>
<path id="Vector_20" d="M34.3102 31.9692L32.5312 32.2362L32.7982 34.0151L34.5772 33.7482L34.3102 31.9692Z" fill="white"/>
<path id="Vector_21" d="M36.3649 31.662L34.5859 31.9289L34.8529 33.7079L36.6319 33.4409L36.3649 31.662Z" fill="white"/>
<path id="Vector_22" d="M41.4352 26.536L39.6562 26.803L39.9232 28.582L41.7022 28.315L41.4352 26.536Z" fill="white"/>
<path id="Vector_23" d="M41.3961 28.7232L39.6172 28.9901L39.8842 30.7691L41.6631 30.5021L41.3961 28.7232Z" fill="white"/>
<path id="Vector_24" d="M45.2946 25.9574L43.5156 26.2244L43.7826 28.0033L45.5615 27.7364L45.2946 25.9574Z" fill="white"/>
<path id="Vector_25" d="M45.2399 28.1458L43.4609 28.4128L43.7279 30.1917L45.5069 29.9247L45.2399 28.1458Z" fill="white"/>
<path id="Vector_26" d="M42.7633 30.7008L40.9844 30.9677L41.2513 32.7467L43.0303 32.4797L42.7633 30.7008Z" fill="white"/>
<path id="Vector_27" d="M44.818 30.3924L43.0391 30.6593L43.306 32.4383L45.085 32.1713L44.818 30.3924Z" fill="white"/>
<path id="Vector_28" d="M5.53432 36.6472C6.80197 37.1777 8.33539 37.1219 9.67516 37.0422C11.2973 36.944 12.9173 36.656 14.4562 36.1267C14.9859 35.9443 15.2392 35.204 14.9972 34.7176C14.7211 34.1623 14.1553 33.9806 13.588 34.1766C13.4197 34.2336 13.251 34.2879 13.0819 34.3397C13.2687 34.2826 13.0896 34.3386 13.003 34.3595C12.9267 34.3788 12.853 34.3978 12.7767 34.4172C12.4181 34.508 12.0571 34.5833 11.6924 34.6512C10.9523 34.786 10.203 34.8774 9.45271 34.9266C9.27997 34.9367 9.10466 34.9471 8.93115 34.9521C8.89978 34.9541 8.60518 34.9614 8.7499 34.9581C8.89462 34.9549 8.64946 34.9574 8.62067 34.9591C8.28024 34.96 7.94046 34.9476 7.60351 34.919C7.33343 34.8961 7.06439 34.8626 6.79819 34.8128C6.73312 34.8014 6.66986 34.7845 6.60441 34.7706C6.38365 34.7245 6.83834 34.8516 6.63436 34.7767C6.53108 34.7394 6.42599 34.7076 6.32193 34.6651C5.80643 34.4495 5.12417 34.7234 4.9356 35.2613C4.74702 35.7991 4.97996 36.4189 5.53174 36.6476L5.53432 36.6472Z" fill="#1E1E1E"/>
<path id="Vector_29" d="M63.8396 29.0325C65.5986 28.721 67.3827 28.5589 69.1264 28.1625C70.6888 27.8066 72.9899 27.3953 73.2947 25.4857C73.3835 24.9338 72.9222 24.3403 72.3639 24.2974C71.7684 24.2521 71.2693 24.6385 71.1757 25.2281C71.1407 25.4525 71.2714 25.0395 71.1691 25.237C71.3002 24.985 71.1927 25.1833 71.1562 25.239C71.0513 25.4025 71.3193 25.13 71.1418 25.249C71.0915 25.283 71.0342 25.3233 70.9901 25.3642C70.9047 25.4457 71.1675 25.2795 70.9901 25.3642C70.9162 25.3991 70.8456 25.4387 70.769 25.474C70.6159 25.5445 70.4583 25.6024 70.3003 25.6578C70.2351 25.6808 70.1669 25.7016 70.1013 25.722C70.0608 25.7334 70.0232 25.7469 69.9827 25.7583C70.1142 25.7201 70.1423 25.7132 70.0634 25.733C69.8957 25.7766 69.7262 25.8258 69.5585 25.8695C69.1317 25.981 68.703 26.0797 68.2727 26.168C66.7024 26.4882 65.1021 26.6439 63.5252 26.9201C62.975 27.0185 62.5146 27.5575 62.6276 28.1346C62.7406 28.7117 63.2532 29.1364 63.8421 29.0321L63.8396 29.0325Z" fill="#1E1E1E"/>
</g>
</g>
<ellipse id="Ellipse 14" cx="45.0078" cy="106.357" rx="21.9062" ry="1.82205" fill="black" fill-opacity="0.24"/>
</g>
</svg>
