<svg id="ef94PeJirnE1" xmlns="http://www.w3.org/2000/svg" xmlns:xlink="http://www.w3.org/1999/xlink" viewBox="0 0 180 170" shape-rendering="geometricPrecision" text-rendering="geometricPrecision" width="180" height="170">
<style><![CDATA[
#ef94PeJirnE8_tr {animation: ef94PeJirnE8_tr__tr 3310ms linear infinite normal forwards}@keyframes ef94PeJirnE8_tr__tr { 0% {transform: translate(101.88952px,180.093156px) rotate(0deg)} 25.377644% {transform: translate(101.88952px,180.093156px) rotate(0deg);animation-timing-function: cubic-bezier(0.42,0,0.58,1)} 26.586103% {transform: translate(101.88952px,180.093156px) rotate(1deg);animation-timing-function: cubic-bezier(0.42,0,0.58,1)} 30.81571% {transform: translate(101.88952px,180.093156px) rotate(1deg);animation-timing-function: cubic-bezier(0.42,0,0.58,1)} 32.024169% {transform: translate(101.88952px,180.093156px) rotate(0deg);animation-timing-function: cubic-bezier(0.42,0,0.58,1)} 37.160121% {transform: translate(101.88952px,180.093156px) rotate(0deg);animation-timing-function: cubic-bezier(0.42,0,0.58,1)} 38.670695% {transform: translate(101.88952px,180.093156px) rotate(1deg);animation-timing-function: cubic-bezier(0.42,0,0.58,1)} 43.806647% {transform: translate(101.88952px,180.093156px) rotate(1deg);animation-timing-function: cubic-bezier(0.42,0,0.58,1)} 45.317221% {transform: translate(101.88952px,180.093156px) rotate(0deg)} 100% {transform: translate(101.88952px,180.093156px) rotate(0deg)}} #ef94PeJirnE45_ts {animation: ef94PeJirnE45_ts__ts 3310ms linear infinite normal forwards}@keyframes ef94PeJirnE45_ts__ts { 0% {transform: translate(136.185715px,53.360968px) scale(1,1)} 51.963746% {transform: translate(136.185715px,53.360968px) scale(1,1)} 58.006042% {transform: translate(136.185715px,53.360968px) scale(1.307495,1.307495)} 64.048338% {transform: translate(136.185715px,53.360968px) scale(1,1)} 76.73716% {transform: translate(136.185715px,53.360968px) scale(1,1)} 82.779456% {transform: translate(136.185715px,53.360968px) scale(1.307495,1.307495)} 88.821752% {transform: translate(136.185715px,53.360968px) scale(1,1)} 100% {transform: translate(136.185715px,53.360968px) scale(1,1)}} #ef94PeJirnE45 {animation: ef94PeJirnE45_c_o 3310ms linear infinite normal forwards}@keyframes ef94PeJirnE45_c_o { 0% {opacity: 0} 54.984894% {opacity: 0} 58.006042% {opacity: 1} 70.090634% {opacity: 0} 76.73716% {opacity: 0} 82.779456% {opacity: 1} 93.353474% {opacity: 0} 100% {opacity: 0}} #ef94PeJirnE58_ts {animation: ef94PeJirnE58_ts__ts 3310ms linear infinite normal forwards}@keyframes ef94PeJirnE58_ts__ts { 0% {transform: translate(80.469997px,48.639519px) scale(1,1)} 61.02719% {transform: translate(80.469997px,48.639519px) scale(1,1)} 67.069486% {transform: translate(80.469997px,48.639519px) scale(1.430872,1.430872)} 73.111782% {transform: translate(80.469997px,48.639519px) scale(1,1)} 82.175227% {transform: translate(80.469997px,48.639519px) scale(1,1)} 88.217523% {transform: translate(80.469997px,48.639519px) scale(1.430872,1.430872)} 93.957704% {transform: translate(80.469997px,48.639519px) scale(1,1)} 100% {transform: translate(80.469997px,48.639519px) scale(1,1)}} #ef94PeJirnE58 {animation: ef94PeJirnE58_c_o 3310ms linear infinite normal forwards}@keyframes ef94PeJirnE58_c_o { 0% {opacity: 0} 64.048338% {opacity: 0} 67.069486% {opacity: 1} 73.111782% {opacity: 0} 88.217523% {opacity: 0} 93.957704% {opacity: 1} 100% {opacity: 0.333333}} #ef94PeJirnE90_tr {animation: ef94PeJirnE90_tr__tr 3310ms linear infinite normal forwards}@keyframes ef94PeJirnE90_tr__tr { 0% {transform: translate(135.16px,127.017265px) rotate(1.482261deg)} 9.063444% {transform: translate(135.16px,127.017265px) rotate(1.482261deg);animation-timing-function: cubic-bezier(0.42,0,0.58,1)} 15.10574% {transform: translate(135.16px,127.017265px) rotate(-6.857475deg);animation-timing-function: cubic-bezier(0.42,0,0.58,1)} 24.169184% {transform: translate(135.16px,127.017265px) rotate(-6.857475deg);animation-timing-function: cubic-bezier(0.42,0,0.58,1)} 27.190332% {transform: translate(135.16px,127.017265px) rotate(15deg);animation-timing-function: cubic-bezier(0.42,0,0.58,1)} 33.232628% {transform: translate(135.16px,127.017265px) rotate(-6.857475deg);animation-timing-function: cubic-bezier(0.42,0,0.58,1)} 39.274924% {transform: translate(135.16px,127.017265px) rotate(-6.857475deg);animation-timing-function: cubic-bezier(0.42,0,0.58,1)} 42.296073% {transform: translate(135.16px,127.017265px) rotate(15deg);animation-timing-function: cubic-bezier(0.42,0,0.58,1)} 48.338369% {transform: translate(135.16px,127.017265px) rotate(-6.857475deg)} 63.444109% {transform: translate(135.16px,127.017265px) rotate(-6.857475deg);animation-timing-function: cubic-bezier(0.42,0,0.58,1)} 72.507553% {transform: translate(135.16px,127.017265px) rotate(1.482261deg)} 100% {transform: translate(135.16px,127.017265px) rotate(1.482261deg)}} #ef94PeJirnE91_to {animation: ef94PeJirnE91_to__to 3310ms linear infinite normal forwards}@keyframes ef94PeJirnE91_to__to { 0% {transform: translate(160.926962px,123.376139px)} 9.063444% {transform: translate(160.926962px,123.376139px);animation-timing-function: cubic-bezier(0.42,0,0.58,1)} 15.10574% {transform: translate(162.434078px,119.087405px);animation-timing-function: cubic-bezier(0.42,0,0.58,1)} 21.148036% {transform: translate(162.434078px,119.087405px)} 66.465257% {transform: translate(162.434078px,119.087405px)} 72.507553% {transform: translate(160.926962px,123.376139px)} 100% {transform: translate(160.926962px,123.376139px)}} #ef94PeJirnE115 {animation: ef94PeJirnE115_c_o 3310ms linear infinite normal forwards}@keyframes ef94PeJirnE115_c_o { 0% {opacity: 0} 33.232628% {opacity: 0} 45.92145% {opacity: 0} 48.036254% {opacity: 0.25} 57.099698% {opacity: 1;animation-timing-function: cubic-bezier(0.155,0.955,0.475,0.225)} 72.507553% {opacity: 1;animation-timing-function: cubic-bezier(0.155,0.955,0.475,0.225)} 76.132931% {opacity: 0} 100% {opacity: 0}} #ef94PeJirnE117_to {animation: ef94PeJirnE117_to__to 3310ms linear infinite normal forwards}@keyframes ef94PeJirnE117_to__to { 0% {offset-distance: 0%} 44.108761% {offset-distance: 0%;animation-timing-function: cubic-bezier(0,0.925,0,0.64)} 67.673716% {offset-distance: 100%} 100% {offset-distance: 100%}} #ef94PeJirnE117_tr {animation: ef94PeJirnE117_tr__tr 3310ms linear infinite normal forwards}@keyframes ef94PeJirnE117_tr__tr { 0% {transform: rotate(-52.892521deg)} 44.108761% {transform: rotate(-52.892521deg);animation-timing-function: cubic-bezier(0,0.925,0,0.64)} 70.694864% {transform: rotate(699.722461deg)} 100% {transform: rotate(699.722461deg)}} #ef94PeJirnE118_to {animation: ef94PeJirnE118_to__to 3310ms linear infinite normal forwards}@keyframes ef94PeJirnE118_to__to { 0% {offset-distance: 0%} 50.151057% {offset-distance: 0%;animation-timing-function: cubic-bezier(0,0.925,0,0.64)} 73.716012% {offset-distance: 100%} 100% {offset-distance: 100%}} #ef94PeJirnE118_tr {animation: ef94PeJirnE118_tr__tr 3310ms linear infinite normal forwards}@keyframes ef94PeJirnE118_tr__tr { 0% {transform: rotate(20.708574deg)} 50.151057% {transform: rotate(20.708574deg);animation-timing-function: cubic-bezier(0,0.925,0,0.64)} 73.716012% {transform: rotate(676.203998deg)} 100% {transform: rotate(676.203998deg)}} #ef94PeJirnE119_to {animation: ef94PeJirnE119_to__to 3310ms linear infinite normal forwards}@keyframes ef94PeJirnE119_to__to { 0% {offset-distance: 0%} 44.108761% {offset-distance: 0%;animation-timing-function: cubic-bezier(0,0.925,0,0.64)} 73.716012% {offset-distance: 100%} 100% {offset-distance: 100%}} #ef94PeJirnE119_tr {animation: ef94PeJirnE119_tr__tr 3310ms linear infinite normal forwards}@keyframes ef94PeJirnE119_tr__tr { 0% {transform: rotate(0deg)} 44.108761% {transform: rotate(0deg);animation-timing-function: cubic-bezier(0,0.925,0,0.64)} 73.716012% {transform: rotate(861.983102deg)} 100% {transform: rotate(861.983102deg)}} #ef94PeJirnE120_to {animation: ef94PeJirnE120_to__to 3310ms linear infinite normal forwards}@keyframes ef94PeJirnE120_to__to { 0% {offset-distance: 0%} 44.108761% {offset-distance: 0%;animation-timing-function: cubic-bezier(0,0.925,0,0.64)} 76.73716% {offset-distance: 100%} 100% {offset-distance: 100%}} #ef94PeJirnE120_tr {animation: ef94PeJirnE120_tr__tr 3310ms linear infinite normal forwards}@keyframes ef94PeJirnE120_tr__tr { 0% {transform: rotate(0deg)} 44.108761% {transform: rotate(0deg)} 71.601208% {transform: rotate(421.354362deg)} 100% {transform: rotate(421.354362deg)}} #ef94PeJirnE121_to {animation: ef94PeJirnE121_to__to 3310ms linear infinite normal forwards}@keyframes ef94PeJirnE121_to__to { 0% {offset-distance: 0%} 44.108761% {offset-distance: 0%;animation-timing-function: cubic-bezier(0,0.925,0,0.64)} 67.673716% {offset-distance: 100%} 100% {offset-distance: 100%}} #ef94PeJirnE121_tr {animation: ef94PeJirnE121_tr__tr 3310ms linear infinite normal forwards}@keyframes ef94PeJirnE121_tr__tr { 0% {transform: rotate(41.65678deg)} 44.108761% {transform: rotate(41.65678deg);animation-timing-function: cubic-bezier(0,0.925,0,0.64)} 61.63142% {transform: rotate(2931.317688deg)} 100% {transform: rotate(2931.317688deg)}} #ef94PeJirnE123_to {animation: ef94PeJirnE123_to__to 3310ms linear infinite normal forwards}@keyframes ef94PeJirnE123_to__to { 0% {offset-distance: 0%} 51.057402% {offset-distance: 0%;animation-timing-function: cubic-bezier(0,0.925,0,0.64)} 79.154079% {offset-distance: 100%} 100% {offset-distance: 100%}} #ef94PeJirnE123_tr {animation: ef94PeJirnE123_tr__tr 3310ms linear infinite normal forwards}@keyframes ef94PeJirnE123_tr__tr { 0% {transform: rotate(0deg)} 53.172205% {transform: rotate(0deg);animation-timing-function: cubic-bezier(0,0.925,0,0.64)} 73.716012% {transform: rotate(-1061.894454deg)} 100% {transform: rotate(-1061.894454deg)}} #ef94PeJirnE124_to {animation: ef94PeJirnE124_to__to 3310ms linear infinite normal forwards}@keyframes ef94PeJirnE124_to__to { 0% {offset-distance: 0%} 48.338369% {offset-distance: 0%;animation-timing-function: cubic-bezier(0,0.925,0,0.64)} 74.924471% {offset-distance: 100%} 100% {offset-distance: 100%}} #ef94PeJirnE124_tr {animation: ef94PeJirnE124_tr__tr 3310ms linear infinite normal forwards}@keyframes ef94PeJirnE124_tr__tr { 0% {transform: rotate(0deg)} 48.338369% {transform: rotate(0deg);animation-timing-function: cubic-bezier(0,0.925,0,0.64)} 74.924471% {transform: rotate(-626.577225deg)} 100% {transform: rotate(-626.577225deg)}} #ef94PeJirnE125_to {animation: ef94PeJirnE125_to__to 3310ms linear infinite normal forwards}@keyframes ef94PeJirnE125_to__to { 0% {offset-distance: 0%} 47.129909% {offset-distance: 0%;animation-timing-function: cubic-bezier(0,0.925,0,0.64)} 76.73716% {offset-distance: 100%} 100% {offset-distance: 100%}} #ef94PeJirnE125_tr {animation: ef94PeJirnE125_tr__tr 3310ms linear infinite normal forwards}@keyframes ef94PeJirnE125_tr__tr { 0% {transform: rotate(0deg)} 47.129909% {transform: rotate(0deg);animation-timing-function: cubic-bezier(0,0.925,0,0.64)} 69.18429% {transform: rotate(-722.668545deg)} 100% {transform: rotate(-722.668545deg)}} #ef94PeJirnE126_to {animation: ef94PeJirnE126_to__to 3310ms linear infinite normal forwards}@keyframes ef94PeJirnE126_to__to { 0% {offset-distance: 0%} 47.129909% {offset-distance: 0%;animation-timing-function: cubic-bezier(0,0.925,0,0.64)} 76.73716% {offset-distance: 100%} 100% {offset-distance: 100%}} #ef94PeJirnE126_tr {animation: ef94PeJirnE126_tr__tr 3310ms linear infinite normal forwards}@keyframes ef94PeJirnE126_tr__tr { 0% {transform: rotate(-207.628927deg)} 47.129909% {transform: rotate(-207.628927deg);animation-timing-function: cubic-bezier(0,0.925,0,0.64)} 70.694864% {transform: rotate(-218.121115deg)} 100% {transform: rotate(-218.121115deg)}} #ef94PeJirnE127_to {animation: ef94PeJirnE127_to__to 3310ms linear infinite normal forwards}@keyframes ef94PeJirnE127_to__to { 0% {offset-distance: 0%} 48.338369% {offset-distance: 0%;animation-timing-function: cubic-bezier(0,0.925,0,0.64)} 78.549849% {offset-distance: 100%} 100% {offset-distance: 100%}} #ef94PeJirnE127_tr {animation: ef94PeJirnE127_tr__tr 3310ms linear infinite normal forwards}@keyframes ef94PeJirnE127_tr__tr { 0% {transform: rotate(0deg)} 48.338369% {transform: rotate(0deg);animation-timing-function: cubic-bezier(0,0.925,0,0.64)} 68.882175% {transform: rotate(-1269.758674deg)} 100% {transform: rotate(-1269.758674deg)}}
]]></style>
<defs><filter id="ef94PeJirnE5-filter" x="-150%" width="400%" y="-150%" height="400%"><feGaussianBlur id="ef94PeJirnE5-filter-drop-shadow-0-blur" in="SourceAlpha" stdDeviation="9.83,9.83"/><feOffset id="ef94PeJirnE5-filter-drop-shadow-0-offset" dx="0" dy="0" result="tmp"/><feFlood id="ef94PeJirnE5-filter-drop-shadow-0-flood" flood-color="rgba(255,225,100,0.75)"/><feComposite id="ef94PeJirnE5-filter-drop-shadow-0-composite" operator="in" in2="tmp"/><feMerge id="ef94PeJirnE5-filter-drop-shadow-0-merge" result="result"><feMergeNode id="ef94PeJirnE5-filter-drop-shadow-0-merge-node-1"/><feMergeNode id="ef94PeJirnE5-filter-drop-shadow-0-merge-node-2" in="SourceGraphic"/></feMerge></filter></defs><ellipse rx="27.854699" ry="4.56079" transform="matrix(.953951 0 0 1 91.766965 159.87842)" fill="#c0c0c0" stroke-width="0"/><g transform="translate(-11.389853-17.48245)"><g><path d="M119.92,110.78c8.12-4.67,13.65-12.94,13.99-22.53.54-15.26-12.26-28.11-28.6-28.69s-30.03,11.32-30.57,26.58c-.35,9.9,4.91,18.78,13.11,23.96-9.3,4.71-15.88,13.61-16.64,24.22-1.19,16.61,12.31,31.11,30.16,32.39s33.28-11.15,34.47-27.76c.84-11.77-5.7-22.48-15.93-28.17h.01Z" filter="url(#ef94PeJirnE5-filter)" fill="#ffde1d" stroke-width="0"/><path d="M117.53,165.06c.6,1.95,2.66,6.63,3.3,8.58.37,1.14.87,3.86,2.16,4.52c1.32.68,3.02-.55,4.17-.94.9-.3,4.69-.64,5.02-1.69c1.35-4.3-5.61-2.49-6.61-3.02-1.04-.55-2.7-6.37-4.23-10.21" fill="#fff" stroke-width="0"/><path d="M116.49,165.34c1.02,3.24,2.66,6.27,3.57,9.55.45,1.62,1.04,3.8,2.84,4.4c1.9.63,3.52-.85,5.29-1.2c1.42-.28,3.16-.41,4.34-1.33c1.07-.84,1.16-2.72.42-3.8-1.42-2.07-4.67-1.37-6.78-1.42-.12,0-.3.04-.2,0c.13-.07-.15.08.14.06c0,0,.05.09-.06-.09.1.16-.11-.19-.14-.24-.44-.75-.74-1.58-1.04-2.39-.86-2.27-1.59-4.59-2.48-6.85-.5-1.28-2.59-.72-2.08.57.73,1.85,1.36,3.73,2.03,5.59.52,1.44.99,3.02,1.81,4.31.59.93,1.29,1.2,2.35,1.2s2.12-.11,3.19-.02c.35.03.92.15,1.15.25.27.12.21.09.36.26-.11-.12.03.05.06.11-.07-.18.02.19.02.12c0,.13-.06.45-.09.66c0,.04-.07.37.02.04s.08-.03,0-.05c.05,0-.14.08-.24.13-.58.28-1.26.4-1.89.52s-1.26.22-1.88.37c-.79.19-1.48.62-2.23.91-.67.26-1.37.49-1.84-.18-.45-.63-.66-1.43-.87-2.16-.98-3.39-2.61-6.54-3.67-9.9-.42-1.32-2.5-.76-2.08.57v0l-.02.01Z" fill="#1e1e1e" stroke-width="0"/></g><g id="ef94PeJirnE8_tr" transform="translate(101.88952,180.093156) rotate(0)"><g transform="translate(-101.889519,-180.093154)"><g><path d="M83.5,164.12c-.19,2.49-.94,4.85-1.68,7.22-.55,1.75-.83,2.57-2.52,3.29-1.01.43-3.57.96-3.51,2.55.06,1.77,3.36,1.43,4.37,1.52c1.49.14,3.24.6,4.69.08c1.81-.65,1.87-2.16,2.01-3.83.24-2.84,0-6.75,1.46-9.27" fill="#fff" stroke-width="0"/><path d="M82.42,164.12c-.17,2.01-.72,3.96-1.31,5.88-.32,1.05-.54,2.56-1.5,3.25s-2.16.82-3.16,1.37c-1.11.61-2.04,1.76-1.68,3.11.64,2.38,3.77,1.88,5.61,2.08s3.52.6,5.2-.17c1.32-.6,1.98-1.8,2.19-3.18.5-3.32-.22-7.18,1.47-10.22.68-1.22-1.19-2.31-1.87-1.09-1.44,2.59-1.39,5.69-1.53,8.57-.05,1.03.06,2.53-.53,3.44-.73,1.12-2.57.81-3.67.66s-2.08-.19-3.15-.24c-.42-.02-.85-.05-1.25-.19-.11-.04-.26-.1-.33-.14-.06-.04-.07-.02-.07-.07.07-.69,1.35-1.02,1.92-1.22c1.04-.37,2.11-.78,2.83-1.65.98-1.17,1.3-2.85,1.73-4.27.59-1.94,1.06-3.9,1.23-5.93.12-1.39-2.05-1.38-2.16,0v0l.03.01Z" fill="#1e1e1e" stroke-width="0"/></g><g><g><path d="M92.68,60.37c-.01-.89-.39-1.96-.58-2.79-.35-1.5-.65-3.01-1.06-4.51-.27-.99-.52-2.01-.87-2.98-.12-.34-.56-.9-.39-1.23c2.07.03,4.36,1.16,6.27,1.8.83.28,2.19.95,3.13.63.73-.25,1.38-1.26,1.88-1.75.85-.83,1.6-1.73,2.54-2.49.56-.45,2.42-2.24,3.18-2.16c1.13.11,2.28,3.55,2.69,4.19.55.87,1.54,3.17,2.88,3.25.64.04,1.19-.28,1.76-.49c1.24-.45,2.5-.87,3.79-1.22.95-.26,2.34-.7,3.3-.66.08.92-2.76,9.36-3.8,11.72" fill="#efefed" stroke-width="0"/><path d="M93.64,60.37c-.13-1.99-.82-4.05-1.28-5.98-.24-1.03-.52-2.05-.81-3.07-.14-.5-.28-1-.47-1.49-.04-.1-.39-.72-.39-.72l-.93.7c2.09.1,4.07,1.07,6.02,1.77c1.44.52,3,1.21,4.4.22.61-.43,1.04-1.05,1.54-1.59.81-.87,1.65-1.72,2.54-2.49.42-.37.84-.74,1.28-1.09.28-.22.63-.55.97-.68.32-.12-.03-.2.27.04.89.72,1.21,2.32,1.72,3.32.57,1.13,1.25,2.43,2.22,3.26c1.43,1.24,2.91.43,4.46-.11c1.86-.65,4.01-1.52,6-1.55l-.96-.96c.03,1.35-.97,3.6-1.45,5.07-.68,2.07-1.36,4.17-2.22,6.17-.48,1.12,1.17,2.1,1.66.97.93-2.16,1.68-4.4,2.41-6.63.39-1.17.76-2.35,1.1-3.54.18-.64.44-1.36.42-2.04-.01-.51-.43-.97-.96-.96-1.91.03-3.88.74-5.68,1.34-.56.18-1.12.37-1.66.58-.4.15-1.06.56-1.5.45-.66-.17-1.11-1.12-1.42-1.65-.6-1.03-1.07-2.08-1.59-3.15-.46-.96-1.1-2.3-2.24-2.58s-2.32.8-3.14,1.49c-1.34,1.12-2.61,2.31-3.79,3.6-.62.68-1.01,1.44-2.02,1.3-.87-.12-1.78-.59-2.59-.89-1.9-.69-3.75-1.48-5.8-1.58-.38-.02-.86.31-.93.7-.15.85.25,1.39.53,2.16.35.98.59,2.01.85,3.01s.5,2.1.74,3.16c.25,1.13.68,2.28.75,3.44.08,1.23,2,1.24,1.92,0v0h.03Z" fill="#1e1e1e" stroke-width="0"/></g><path d="M106.26,60.17c-13.49-.95-27.33,5.92-31.15,21.41-3.04,12.34,2,22.24,11.9,27.81-3.86,2.01-15.27,8.94-18.23,20.45-2.6,10.1,1.24,21.34,8.92,28.39c7.69,7.05,21.37,9.96,31.75,8.94c12.68-1.24,22.45-8.92,26.86-20.88s1.2-23.71-13.22-33.89c10-6.99,14.58-17.92,11.58-29.74-3.53-13.9-15.82-21.61-28.41-22.5v.01Z" fill="#fff" stroke-width="0"/><path d="M108.47,61.28c-13.49-.95-27.33,5.92-31.15,21.41-3.04,12.34,1.35,20.42,11.24,25.99-3.86,2.01-14.61,10.76-17.57,22.28-2.6,10.1,1.24,21.34,8.92,28.39c7.69,7.05,21.37,9.96,31.75,8.94c12.68-1.24,21.28-9.46,25.69-21.41c4.41-11.96,1.59-24.59-12.04-33.36c10-6.99,14.58-17.92,11.58-29.74-3.53-13.9-15.82-21.61-28.41-22.5h-.01Z" fill="#ffde1d" stroke-width="0"/><path d="M105.13,58.94c-9.57-.63-19.55,2.59-25.94,9.97s-9.32,19.54-5.24,29.06c2.26,5.28,6.44,9.39,11.38,12.21v-1.87c-3.82,2.01-7.32,4.92-10.37,7.96-3.95,3.95-7.41,8.71-8.63,14.25-2.63,12.02,3.41,25.23,13.84,31.59c5.16,3.15,11.14,4.91,17.09,5.72s11.66.72,17.26-.85c10.98-3.08,19.28-11.87,22.43-22.75c1.62-5.61,1.54-11.6-.69-17.03-2.73-6.65-8-11.77-13.76-15.87v1.87c8.4-5.94,13.78-15.32,12.93-25.78-.81-10.03-6.53-18.99-15.26-23.98-4.61-2.64-9.78-4.1-15.06-4.5-1.39-.1-1.38,2.06,0,2.16c8.63.65,17.08,4.58,22.44,11.5c5.72,7.38,7.52,17.77,3.95,26.48-2.05,5-5.73,9.15-10.11,12.25-.69.49-.69,1.37,0,1.87c4.93,3.51,9.49,7.84,12.2,13.34c2.12,4.32,2.8,9.22,1.99,13.96-1.75,10.22-8.73,19.41-18.41,23.3-5,2.01-10.4,2.58-15.76,2.28-5.7-.32-11.48-1.58-16.67-3.97s-9.36-5.93-12.38-10.71-4.84-10.92-4.45-16.83c.41-6.29,3.57-11.56,7.84-16.03c3.08-3.22,6.68-6.27,10.64-8.35.72-.38.68-1.48,0-1.87-4.05-2.31-7.56-5.51-9.77-9.66s-2.89-9.14-2.23-13.87c1.32-9.53,7.24-17.73,16.18-21.43c4.59-1.9,9.59-2.57,14.53-2.25c1.39.09,1.38-2.07,0-2.16l.03-.01Z" fill="#1e1e1e" stroke-width="0"/><path d="M95.11,80.88c-.23.93-.13,1.99.08,2.91.24,1.05.8,2.07,1.94,2.29.98.19,1.96-.11,2.59-.9.56-.69.89-1.52,1.09-2.38.17-.71.28-1.46.3-2.19.02-.57-.51-1.11-1.08-1.08-.6.03-1.06.47-1.08,1.08c0,.21-.03.42-.05.63c0,.06-.02.13-.02.19-.02.17.05-.32.02-.15c0,.04-.01.07-.02.11-.02.16-.05.31-.08.47-.06.33-.14.65-.24.96-.05.16-.11.31-.17.46.14-.39.04-.1,0,0-.04.08-.08.16-.13.24-.03.05-.06.11-.1.16-.07.1-.25.27.02,0-.11.11-.21.22-.32.32.28-.26.13-.1.02-.04-.03.02-.06.03-.09.05-.14.08.29-.1.13-.06-.07.02-.13.04-.2.06-.11.03-.18-.03.15-.02-.05,0-.1,0-.14,0-.06,0-.13,0-.19-.01.4.01.13.02,0-.02-.04-.01-.08-.02-.13-.04-.15-.05-.08-.1.11.05-.02-.02-.06-.04-.08-.05-.13-.07.23.22.09.06-.02-.02-.05-.06-.07-.08.21.18.14.2.08.1-.04-.07-.08-.14-.12-.21-.02-.04-.04-.08-.05-.12.16.32.07.18.04.09-.04-.1-.07-.21-.1-.32-.06-.21-.1-.42-.14-.64-.01-.08-.02-.28,0,.08c0-.07-.02-.14-.02-.2-.01-.12-.02-.23-.03-.35-.01-.21-.01-.43,0-.65c0-.12.08-.46,0-.03.02-.08.03-.15.04-.23.13-.55-.18-1.2-.75-1.33s-1.18.17-1.33.75v0l.03.04Z" fill="#1e1e1e" stroke-width="0"/><path d="M103.34,81.21c-.07.85-.1,1.69.05,2.54s.59,1.67,1.36,2.06c.92.47,2.12.42,3.02-.09.79-.45,1.24-1.29,1.41-2.16s.14-1.75.21-2.63c.04-.56-.53-1.1-1.08-1.08-.62.03-1.03.48-1.08,1.08-.05.64-.04,1.29-.11,1.93-.03.27.04-.28,0-.02-.01.07-.03.15-.04.22-.03.15-.07.31-.13.46-.09.23.12-.25.01-.03-.03.06-.06.12-.1.18-.01.02-.03.04-.04.07-.07.11-.13.07.07-.09-.06.05-.11.12-.17.17-.02.02-.05.03-.06.05.16-.19.19-.14.09-.07-.06.04-.12.07-.19.1-.08.04-.15.03.13-.06-.04.01-.09.03-.13.05-.09.03-.18.04-.27.06-.13.04.31-.03.1-.01-.04,0-.08,0-.11,0-.09,0-.18,0-.27,0-.05,0-.1,0-.15,0c.3,0,.24.04.15.02s-.17-.04-.25-.06c-.17-.05.26.14.11.05-.02-.01-.05-.02-.07-.04-.13-.07-.18-.19.03.04-.04-.05-.1-.08-.14-.13-.01-.02-.07-.06-.07-.09c0,.02.18.27.08.09-.03-.06-.07-.11-.1-.17-.12-.21.1.27.01.04-.05-.15-.09-.3-.12-.45c0-.03-.01-.06-.02-.09-.04-.26.03.25,0,.06c0-.09-.02-.17-.02-.26-.01-.19-.02-.37-.02-.56c0-.4.03-.8.06-1.21.05-.56-.53-1.1-1.08-1.08-.62.03-1.03.48-1.08,1.08v0l.01.03Z" fill="#1e1e1e" stroke-width="0"/><path d="M86.66,109.95c1.79-.76,3.48-1.71,5.23-2.55.51-.24.69-1.02.39-1.48-.34-.53-.93-.65-1.48-.39-1.75.84-3.44,1.79-5.23,2.55-.52.22-.68,1.03-.39,1.48.35.54.92.62,1.48.39v0Z" fill="#1e1e1e" stroke-width="0"/><path d="M113.53,120.58c1.87-1.9,3.88-3.64,6.02-5.23c1.68-1.25,3.42-2.42,5.04-3.75.45-.37.38-1.14,0-1.53-.45-.45-1.08-.37-1.53,0-1.53,1.26-3.24,2.39-4.85,3.6-2.2,1.64-4.28,3.42-6.2,5.38-.97.99.55,2.52,1.53,1.53v0h-.01Z" fill="#1e1e1e" stroke-width="0"/><path d="M90.61,90.01c-.73,4.43,4.01,6.63,7.61,7.42c4.39.96,9.83.92,13.77-1.5c2-1.23,3.33-3.15,3.4-5.53.04-1.39-2.12-1.39-2.16,0-.1,3.57-4.32,4.86-7.24,5.24-3.66.49-8.05.15-11.27-1.81-1.22-.74-2.26-1.88-2.03-3.24s-1.86-1.94-2.08-.57v0-.01Z" fill="#1e1e1e" stroke-width="0"/><g><g><path d="M81.47,112.9c12.96,13.68,34.07,23.56,52.08,28.1c3.99,1,4.61,2.19,3.36,6.33-1.13,3.75-3.83,8.91-6.92,9.07-4.25.22-8.94-.77-15.29-2.68-5.83-1.76-12.88-5.04-16.62-6.68-8.6-3.78-19.07-9.85-25.15-16.83-3.67-4.2-6.58-5.82-3.6-10.18c2.74-4.01,5.24-6.26,10.15-8.79l1.99,1.66Z" fill="#cb8be8" stroke-width="0"/><path d="M80.71,113.67c7.84,8.23,17.64,14.49,27.84,19.39c5.16,2.48,10.49,4.63,15.93,6.43c2.66.88,5.35,1.68,8.06,2.38c1.34.35,3.74.61,3.86,2.36.16,2.19-1.16,4.89-2.15,6.76-.94,1.77-2.35,4.23-4.58,4.36-5.54.32-11.4-1.52-16.58-3.27s-10.17-4.03-15.15-6.27c-5.32-2.39-10.47-5.2-15.26-8.54-2.66-1.85-5.2-3.88-7.47-6.19-1.15-1.16-2.2-2.4-3.31-3.6-.9-.96-2.02-1.98-2.52-3.23-.54-1.33.15-2.58.88-3.68.8-1.2,1.7-2.35,2.7-3.4c2.02-2.12,4.48-3.66,7.07-5.01l-1.31-.17c.66.55,1.33,1.11,1.99,1.66c1.06.88,2.6-.64,1.53-1.53-.66-.55-1.33-1.11-1.99-1.66-.39-.32-.85-.41-1.31-.17-2.5,1.3-4.91,2.8-6.94,4.78-1.8,1.75-3.78,4-4.64,6.38s.2,4.37,1.74,6.15c2.05,2.38,4.21,4.76,6.55,6.86c9,8.06,20.32,13.12,31.4,17.63c5.94,2.41,12.23,4.5,18.62,5.23c2.22.25,4.87.61,6.81-.73c2.19-1.51,3.56-4.1,4.56-6.48.82-1.94,1.86-4.44,1.45-6.6-.36-1.88-2.02-2.76-3.71-3.29-2.85-.89-5.77-1.55-8.61-2.46s-5.76-1.96-8.59-3.09c-12.95-5.17-25.65-12.37-35.35-22.53-.96-1.01-2.49.52-1.53,1.53h.01Z" fill="#1e1e1e" stroke-width="0"/></g><path d="M96.92,133.79c1.47,0,1.47-2.28,0-2.28s-1.47,2.28,0,2.28v0Z" fill="#1e1e1e" stroke-width="0"/><path d="M93.76,133.84c-1.03.94-2.03,1.91-3.07,2.85-.45.4-.44,1.21,0,1.61.48.44,1.14.43,1.61,0c1.04-.93,2.03-1.91,3.07-2.85.44-.4.44-1.21,0-1.61-.47-.44-1.14-.43-1.61,0v0Z" fill="#1e1e1e" stroke-width="0"/><path d="M104.06,136.32c-.6-1.19-2.03-2.12-3.38-2.07-1.5.06-2.96,1.38-2.61,2.96.22,1,1.15,1.76,1.85,2.45.12.12-.08-.08-.06-.08c0,0,.06.08.07.1.02.03.04.07.06.1.13.2.02-.09,0,.02c0,.06.07.15.05.21.02-.06-.08-.23-.02-.06.07.19-.16-.09.02-.07c0,.04-.02.07-.03.11-.03.08,0,.05.05-.1c0,0-.08.14-.07.13-.1.2.03-.07.04-.05c0,0-.2.21-.06.07.12-.11-.01,0-.05.02-.07.04-.23.09,0,.01-.06.02-.11.04-.17.05s-.12.03-.18.04c.27-.05-.04-.01-.09-.01-.07,0-.14,0-.21-.01-.33-.02.22.05-.1-.01-.16-.03-.32-.06-.47-.1s-.29-.09-.44-.15c.25.1-.13-.07-.21-.12-.06-.04-.12-.08-.19-.12-.11-.07-.13-.1-.01,0-.12-.11-.24-.22-.35-.34-.04-.04-.08-.09-.12-.14-.05-.06-.04-.05.04.05-.03-.04-.05-.08-.08-.12-.1-.15-.19-.3-.27-.46-.28-.53-1.06-.73-1.56-.41-.54.35-.7.99-.41,1.56.62,1.19,1.66,2.06,2.95,2.43c1.37.39,3.04.3,3.88-1.01.38-.6.46-1.38.24-2.05-.18-.56-.54-1-.95-1.41-.16-.15-.31-.31-.47-.46-.08-.08-.16-.17-.24-.25-.03-.04-.07-.08-.1-.12-.17-.19.13.21,0,0-.05-.08-.09-.16-.15-.24-.12-.17.03.18.03.06c0-.03-.02-.09-.03-.12-.06-.13,0,.3.02.08c0,.02-.07.29-.01.11.05-.16-.03.08-.04.08-.04,0,.25-.31,0-.03.04-.04.08-.09.12-.13.06-.06.25-.16.08-.07.06-.03.11-.06.17-.09-.22.12,0,.01.07,0c.2-.06.01,0-.03,0c.09,0,.18,0,.27,0-.21,0-.11-.02-.03,0c.09.03.18.05.27.07.28.07-.11-.07.03,0c.07.04.14.07.21.11s.13.09.2.13c.07.05.05.03-.04-.04.04.03.07.06.11.09.05.04.09.08.13.13.02.02.23.24.12.12-.1-.11.02.02.04.06.05.08.1.16.14.25.27.53,1.07.73,1.56.41.55-.35.7-.99.41-1.56v0-.01Z" fill="#1e1e1e" stroke-width="0"/><path d="M112.17,137.76c-2.22,2.06-3.98,4.55-5.7,7.02l1.97,1.15c.82-1.25,2.1-2.51,2.09-4.11c0-1.74-1.29-2.97-3.01-2.97-1.34,0-2.6.63-3.58,1.53-1.14,1.04-1.76,2.9-.46,4.09s3.63,1.23,5.18.42c.55-.29.71-1.05.41-1.56-.32-.55-1.01-.7-1.56-.41-.11.06-.32.14-.58.2-.06.01-.12.03-.18.04.03,0,.13-.01,0,0-.14.01-.28.02-.43.02-.07,0-.37-.02-.33-.02.06,0-.19-.04-.25-.05-.13-.03-.25-.07-.37-.11-.01,0-.17-.07-.06-.02s-.08-.04-.09-.05c-.04-.02-.26-.17-.16-.09.11.09,0,0-.02-.02-.13-.17,0,.03.02.04-.08-.05-.13-.21-.02,0-.03-.06.02-.09-.01-.03-.04.08,0-.06,0-.11.03-.18-.05.17,0,0c.02-.05.03-.1.05-.15-.07.17.04-.05.07-.11.13-.2.16-.23.4-.45.19-.17.16-.15.44-.33.19-.12.38-.22.58-.32s-.16.04.07-.03c.07-.02.15-.05.22-.07.08-.02.17-.04.25-.06.26-.06-.12,0,.16-.02.1,0,.19-.01.29,0c.07,0,.38.05.14,0c.1.02.19.05.28.07-.19-.05.03.02.12.07.12.08-.04-.03-.04-.03.02-.01.11.14.02,0c.03.04.13.27.08.12.04.11.06.22.09.34-.04-.21,0,.14,0,.21c0,.02-.02.18,0,.04s-.02.06-.03.09c-.01.05-.03.09-.04.14-.05.2.04-.06-.02.05-.12.23-.25.45-.39.67-.42.63-.89,1.23-1.3,1.87-.34.52-.1,1.26.41,1.56.57.33,1.21.1,1.56-.41c1.62-2.32,3.27-4.62,5.35-6.56c1.08-1-.54-2.61-1.61-1.61v0l-.01-.04Z" fill="#1e1e1e" stroke-width="0"/><path d="M116.15,142.08c-1.43-.17-3.02.59-3.94,1.66-.53.62-.88,1.32-.93,2.14-.05.76.23,1.57.77,2.12s1.3.71,2.03.8s1.48-.09,2.17-.39c1.11-.48,1.88-1.54,2.21-2.68.18-.62.23-1.36,0-1.97-.34-.86-1.06-1.49-1.99-1.64-.31-.05-.59-.05-.88.12-.24.14-.46.41-.52.68-.12.55.17,1.31.8,1.4.07.01.14.02.21.04.03,0,.18.07.2.06l-.14-.06c0,0,.08.04.12.07.1.06.15.16-.07-.07.05.05.11.11.17.16-.21-.19-.14-.2-.07-.09.03.05.05.1.08.16-.16-.29-.09-.22-.05-.11.01.04.02.09.03.13.06.26-.02-.31,0-.03c0,.09,0,.19,0,.28c0,.1-.06.25.02-.11-.01.06-.02.11-.03.17-.02.09-.04.18-.07.27-.03.1-.19.44,0,.06-.09.18-.18.37-.29.54-.06.09-.29.36-.02.05-.05.06-.1.12-.15.18-.06.07-.13.13-.19.19-.1.08-.16.06.1-.07-.05.02-.09.06-.13.09-.11.06-.22.11-.33.17-.24.12.24-.08,0,0-.07.02-.13.05-.2.07-.11.03-.27.1-.38.09c0,0,.31-.03.12-.02-.08,0-.16.01-.23.01-.11,0-.22,0-.34-.01-.22-.02.3.05.09.01-.03,0-.07-.01-.1-.02-.1-.02-.21-.04-.31-.07-.05-.01-.1-.03-.15-.04-.28-.08.17.11.02,0-.04-.02-.18-.13-.02,0s.02.01,0-.01c-.09-.08-.1-.19.04.07-.03-.05-.06-.09-.09-.14s-.05-.1-.07-.15c.16.27.07.17.04.06-.01-.04-.02-.07-.03-.11-.07-.29,0,.22,0,.02c0-.11.01-.23,0-.34.02.29-.03.2,0,.08.01-.05.02-.09.04-.14s.04-.09.05-.14c-.05.26-.08.17-.02.06.06-.12.17-.24.22-.36l-.1.13c0,0,.05-.07.08-.1.04-.05.08-.1.13-.14.1-.11.22-.21.33-.31.18-.16-.22.15-.02.02.07-.05.14-.1.22-.15.11-.07.22-.13.34-.19.06-.03.11-.06.17-.08.18-.09-.27.1.02,0c.11-.04.23-.08.35-.1.06-.02.13-.03.19-.04.13-.02.1-.02-.08,0c.05,0,.1-.01.15-.01.18-.01.36,0,.53.01.27.03.62-.15.81-.33.2-.2.35-.52.33-.81s-.11-.6-.33-.81c-.24-.22-.49-.3-.81-.33h-.1Z" fill="#1e1e1e" stroke-width="0"/><path d="M120.91,144.4c-.32.63-.58,1.28-.9,1.91-.4.8-.9,1.53-1.46,2.23-.39.48-.47,1.15,0,1.61.43.43,1.18.44,1.61,0c.72-.74,1.34-1.58,2.1-2.28.31-.29.61-.48,1.04-.7.18-.09.36-.19.54-.29.08-.04.16-.08.24-.12-.22.11.05-.01.08-.02.17-.07-.05,0-.15,0-.22-.02-.33-.24-.49-.3-.06-.13-.06-.12-.02.03l-.02-.12c0,.1,0,.19,0,.29c0,.22.02-.08,0,.06-.02.09-.04.18-.06.27-.03.11-.06.22-.1.33-.01.03-.12.33-.06.17-.16.38-.37.75-.59,1.1-.11.17-.22.34-.35.5.14-.18-.06.06-.07.08-.06.07-.12.13-.18.2l1.61,1.61c.64-.82,1.3-1.63,2.06-2.34.39-.36.61-.54,1.09-.81.1-.05.2-.11.3-.15-.19.09.09-.03.13-.04.1-.03.2-.05.31-.08-.25.05.15,0,.21,0l-.81-.33c.07.06.13.12.2.19-.17-.16-.05-.04,0,.03-.11-.14,0-.15-.01.01.01-.11-.02-.22-.01-.04c0,.25.04-.07,0,.02-.03.06-.03.14-.06.21c0,.03-.12.31-.02.09-.04.1-.09.19-.14.28-.49.94-1.16,1.8-1.76,2.68-.35.51-.1,1.27.41,1.56.56.33,1.21.1,1.56-.41.74-1.09,1.62-2.16,2.09-3.42.19-.52.26-1.11.11-1.65-.16-.58-.66-1.29-1.27-1.46-.65-.18-1.41.08-2,.34s-1.12.65-1.62,1.07c-.91.77-1.67,1.7-2.4,2.63-.38.49-.47,1.14,0,1.61.43.43,1.19.45,1.61,0c.79-.83,1.4-1.86,1.8-2.94s.57-3.01-.87-3.46c-.62-.19-1.21.02-1.77.3-.49.24-1.01.5-1.45.83-1.1.8-1.89,1.91-2.83,2.88l1.61,1.61c.66-.82,1.29-1.67,1.77-2.61.33-.65.6-1.34.94-1.99.28-.55.14-1.24-.41-1.56-.51-.3-1.28-.14-1.56.41v0l.02-.02Z" fill="#1e1e1e" stroke-width="0"/><path d="M84.87,124.36c-1.36.8-2.5,2-3.44,3.25-.79,1.05-1.97,2.98-.31,3.84c1.28.67,2.93.21,4.2-.25s2.56-1.09,3.75-1.8l-1.15-1.97c-1.58.97-2.99,2.32-3.64,4.09-.42,1.13-.36,2.61.81,3.27c1.09.62,2.53.28,3.63-.13c1.97-.74,3.7-1.94,5.32-3.25.48-.39.4-1.21,0-1.61-.47-.47-1.13-.39-1.61,0-1.23,1-2.57,1.93-4.03,2.55-.47.2-.95.34-1.44.45-.05.01-.11.02-.16.03.11-.01.13-.02.04,0-.11,0-.22.02-.34.02-.09,0-.17,0-.26-.01.23.02.07-.05,0-.02-.09-.03-.09-.03,0,.01s.1.04.01,0c-.08-.09-.12-.17.02.03-.13-.17.16.19.03.04.25.26-.05.07.02-.01.02.17.02.19.01.05c0-.04,0-.09,0-.13-.02-.24-.02,0,0-.08.04-.24.11-.48.2-.7.42-.99,1.52-1.98,2.55-2.61c1.25-.77.11-2.73-1.15-1.97-1,.6-2.04,1.14-3.13,1.55-.32.12-.65.23-.98.32-.14.04-.27.07-.41.1-.05.01-.46.08-.35.07-.12.01-.24.02-.37.03-.05,0-.49-.04-.25,0-.1-.02-.2-.04-.29-.08.24.09-.09-.07-.14-.11l.57.99c0-.09.03-.27-.03,0c.02-.09.05-.18.07-.27.06-.19-.03.05.03-.07.05-.09.09-.18.14-.27.25-.44.55-.85.88-1.24.69-.81,1.45-1.59,2.36-2.12c1.27-.74.12-2.72-1.15-1.97v0l-.01-.02Z" fill="#1e1e1e" stroke-width="0"/></g><path d="M105.42,54.92c2.03,0,2.03-3.15,0-3.15s-2.03,3.15,0,3.15v0Z" fill="#1e1e1e" stroke-width="0"/><g><path d="M106.5,44.54c-.99-.77-1.97-1.89-2.81-2.82.74-.93,1.83-2.01,2.64-2.83.21-.21.6-.43.75-.44.18,0,2.9,3.08,2.97,3.35.1.36-2.38,2.32-3.23,2.99l-.32-.26v.01Z" fill="#ffe239" stroke-width="0"/><path d="M107.06,43.98c-1.05-.82-1.92-1.84-2.81-2.82v1.13c.45-.56.94-1.09,1.44-1.61.23-.24.47-.48.71-.72s.46-.5.68-.64c.04-.02.13-.05.15-.08-.11.12-.42,0-.54-.07.1.06-.17-.17-.08-.07.08.09.17.16.26.24.26.26.51.53.75.8.55.61,1.09,1.23,1.61,1.87-.16-.2.03.05.08.12c0,.01.03.07.04.07-.14-.05-.04-.65-.08-.52l.06-.15c0,0-.02.03-.03.05c0,0-.03.05-.04.06-.09.12.14-.15.03-.03-.06.06-.11.12-.17.18-.14.15-.29.29-.45.43-.77.71-1.6,1.37-2.43,2.02h1.13l-.32-.26c-.33-.27-.8-.33-1.13,0-.28.28-.34.86,0,1.13l.32.26c.37.3.76.29,1.13,0c.82-.64,1.64-1.29,2.41-2c.6-.55,1.44-1.31.83-2.16-.52-.73-1.14-1.4-1.74-2.07-.28-.31-.56-.62-.85-.91-.26-.27-.55-.57-.96-.57-.86-.01-1.55.91-2.09,1.46-.64.66-1.28,1.32-1.86,2.04-.28.35-.32.78,0,1.13.89.98,1.76,2,2.81,2.82.34.27.8.33,1.13,0c.28-.28.34-.86,0-1.13h.01Z" fill="#1e1e1e" stroke-width="0"/></g><g><path d="M89.28,48.65c-.92-.21-1.93-.65-2.79-1.02.2-.86.6-1.94.89-2.75.07-.21.27-.48.37-.53.12-.06,2.93,1.17,3.07,1.33.18.21-.87,2.32-1.24,3.05l-.3-.08Z" fill="#ffe239" stroke-width="0"/><path d="M89.49,47.88c-.48-.11-.95-.27-1.42-.45-.22-.09-.45-.18-.67-.27c0,0-.19-.08-.12-.05s-.12-.05-.12-.05c-.16-.07-.31-.13-.47-.2l.56.98c.13-.52.29-1.03.46-1.54.09-.26.18-.51.27-.76.04-.11.08-.22.12-.32l.02-.06c.03-.09.03-.08-.01.02c0-.05.07-.12.09-.17.09-.16-.11.08.01-.02.21-.18-.64.15-.46.16-.03,0-.28-.06-.14-.02.08.03.16.05.23.08.26.09.51.2.76.3.15.06-.18-.08-.03-.01.04.02.08.04.12.05.07.03.14.06.21.09.15.07.3.13.45.2.25.11.5.23.75.35.08.04.15.08.23.12s.11.12-.1-.08c-.06-.06-.15-.21-.18-.31-.06-.21-.02-.24-.02-.15c0,.15.06-.25,0-.06-.02.06-.03.11-.05.17-.05.15-.1.29-.16.43-.02.04-.04.09-.05.13.07-.21.03-.06,0,0-.05.11-.1.22-.15.33-.09.19-.18.39-.27.58-.16.32-.32.65-.48.97l.9-.37-.3-.08c-.4-.1-.89.13-.98.56s.12.87.56.98l.3.08c.33.08.74-.05.9-.37.38-.75.75-1.5,1.07-2.28.14-.33.29-.68.3-1.04.02-.42-.2-.72-.56-.92-.55-.31-1.15-.55-1.73-.8-.34-.14-.67-.29-1.01-.41s-.66-.21-.99-.03c-.62.35-.8,1.18-1.02,1.8s-.45,1.29-.61,1.96c-.11.46.15.81.56.98-.11-.04,0,0,.05.02.06.03.12.05.18.08.15.06.3.13.44.19.23.1.47.19.7.28.46.18.93.34,1.42.45.41.09.89-.13.98-.56.09-.41-.12-.88-.56-.98l.02.02Z" fill="#1e1e1e" stroke-width="0"/></g><g><path d="M121.22,49.87c-.36-.87-.58-1.95-.78-2.87.82-.33,1.93-.62,2.76-.86.21-.06.55-.06.65,0c.12.06.74,3.07.69,3.28-.07.27-2.4.63-3.2.74l-.11-.29h-.01Z" fill="#ffe239" stroke-width="0"/><path d="M121.99,49.65c-.38-.92-.57-1.9-.78-2.87l-.56.98c.5-.2,1.02-.36,1.55-.51.26-.08.53-.15.79-.22.1-.03.2-.06.31-.09.06-.02.11-.03.17-.05.09-.02.07-.02-.04,0c.04,0,.08,0,.12,0s.13.02.16,0c-.18.07-.49-.28-.53-.35.06.1-.08-.23-.05-.13.03.09.06.17.08.26.07.26.13.52.19.78.13.6.26,1.21.35,1.82.03.17-.02-.24,0-.05c0,.03,0,.06,0,.09c0,.02,0,.05,0,.07-.03-.17.09-.4.21-.51-.06.06.22-.13.1-.08-.08.03-.2.05.06-.02-.06.02-.12.04-.17.06-.15.05-.3.09-.46.12-.78.18-1.57.3-2.35.42l.98.56-.11-.29c-.15-.39-.55-.7-.98-.56-.38.12-.72.57-.56.98l.11.29c.17.44.52.63.98.56.77-.11,1.53-.23,2.29-.4.68-.15,1.59-.4,1.5-1.28-.07-.69-.22-1.37-.37-2.05-.07-.31-.14-.61-.22-.92-.09-.32-.19-.65-.49-.83-.34-.2-.81-.17-1.19-.09-.3.06-.6.16-.89.25-.66.19-1.31.38-1.95.63-.42.17-.66.52-.56.98.21.97.4,1.95.78,2.87.16.39.54.7.98.56.37-.12.73-.57.56-.98h-.01Z" fill="#1e1e1e" stroke-width="0"/></g><g id="ef94PeJirnE45_ts" transform="translate(136.185715,53.360968) scale(1,1)"><g id="ef94PeJirnE45" transform="translate(-136.185715,-53.360968)" opacity="0"><g><path d="M134.75,48.44c.17.77.3,1.52.41,2.31" fill="#efefed" stroke-width="0"/><path d="M133.83,48.7c.16.75.3,1.51.4,2.27l-.03-.26v.04c0,.13.03.26.09.37.04.12.1.22.2.31.17.17.44.29.68.28s.51-.09.68-.28c.16-.17.31-.43.28-.68-.12-.86-.25-1.72-.44-2.57-.05-.23-.24-.46-.44-.57s-.51-.17-.74-.1c-.52.17-.78.65-.67,1.18v0l-.01.01Z" fill="#1e1e1e" stroke-width="0"/></g><g><path d="M133.17,54.52c-.55.24-1.16.4-1.75.45" fill="#efefed" stroke-width="0"/><path d="M132.69,53.69c0,0-.04.02-.06.02l.23-.1c-.46.19-.94.33-1.44.39l.26-.03c-.08.01-.17.02-.25.03-.26.02-.49.09-.68.28-.17.17-.29.44-.28.68s.09.51.28.68c.18.16.43.3.68.28.38-.03.77-.09,1.14-.19s.73-.24,1.09-.39c.21-.09.38-.37.44-.57.06-.23.03-.54-.1-.74s-.33-.39-.57-.44l-.26-.03c-.17,0-.33.04-.48.13v0Z" fill="#1e1e1e" stroke-width="0"/></g><g><path d="M136.59,56.38c.17.56.28,1.45.37,1.9" fill="#efefed" stroke-width="0"/><path d="M135.67,56.64c.19.62.24,1.27.37,1.9.05.23.25.46.44.57.21.12.51.17.74.1s.46-.22.57-.44c.13-.24.15-.48.1-.74-.13-.63-.18-1.28-.37-1.9-.07-.23-.23-.45-.44-.57s-.51-.17-.74-.1-.46.22-.57.44-.17.49-.1.74v0Z" fill="#1e1e1e" stroke-width="0"/></g><g><path d="M138.32,53.08c.86-.3,1.73-.52,2.62-.67" fill="#efefed" stroke-width="0"/><path d="M138.58,54c.85-.29,1.73-.52,2.62-.67.22-.04.46-.25.57-.44.12-.21.17-.51.1-.74s-.22-.46-.44-.57c-.24-.13-.47-.14-.74-.1-.89.15-1.77.38-2.62.67-.24.08-.44.22-.57.44-.12.21-.17.51-.1.74.15.47.67.85,1.18.67v0Z" fill="#1e1e1e" stroke-width="0"/></g></g></g><g id="ef94PeJirnE58_ts" transform="translate(80.469997,48.639519) scale(1,1)"><g id="ef94PeJirnE58" transform="translate(-80.469997,-48.639519)" opacity="0"><g><path d="M81.55,51.08c-.58.16-1.59.54-2.17.7" fill="#efefed" stroke-width="0"/><path d="M81.3,50.16c-.73.21-1.44.49-2.17.7-.23.07-.45.23-.57.44s-.17.51-.1.74c.16.49.66.82,1.18.67.73-.21,1.44-.49,2.17-.7.23-.07.45-.23.57-.44s.17-.51.1-.74c-.16-.49-.66-.82-1.18-.67v0Z" fill="#1e1e1e" stroke-width="0"/></g><g><path d="M81.13,46.7c-.3-.43-.52-.73-.77-1.2" fill="#efefed" stroke-width="0"/><path d="M81.96,46.21c-.27-.39-.54-.78-.77-1.2-.06-.11-.14-.2-.25-.27-.09-.08-.2-.14-.33-.17-.13-.04-.26-.05-.38-.02-.13,0-.25.04-.36.11-.2.13-.39.33-.44.57s-.03.51.1.74c.23.42.5.8.77,1.2.06.11.14.2.25.27.09.08.2.14.33.17.13.04.26.05.38.02.13,0,.25-.04.36-.11.2-.13.39-.33.44-.57s.05-.53-.1-.74v0Z" fill="#1e1e1e" stroke-width="0"/></g></g></g><g transform="matrix(.998154 0.060729-.060729 0.998154 7.891192-3.985216)"><g transform="translate(.000001 0)"><g><g><path d="M76.77,125.92c1.03-.77,5.6-4.5,5.48-5.76-.08-.85-.42-2.62-1.07-2.66-3.07-.19-7.57.3-10.64.21" fill="#efefef" stroke-width="0"/><path d="M77.32,126.85c.96-.73,1.89-1.5,2.79-2.31c1.01-.91,2.11-1.9,2.82-3.08s.35-2.86-.28-4.02c-.47-.88-1.19-1.02-2.11-1.05-1.04-.03-2.07,0-3.11.03-2.29.08-4.59.27-6.88.22-1.39-.03-1.39,2.13,0,2.16c1.77.04,3.55-.07,5.32-.15.93-.04,1.86-.08,2.79-.1.42,0,.85-.01,1.27,0c.2,0,.4,0,.6.01.11,0,.23.02.33.01.11,0,.15.06.11,0-.03-.05-.35-.13-.31-.22c0,.01.08.13.09.14.07.13.07.14.12.27.12.33.19.68.25,1.03.03.18.02.14.04.27.01.07.07.3.02.12-.02-.07,0-.12,0-.03-.02.16.02-.03.04-.06-.05.1-.1.19-.15.29-.26.43-.48.66-.89,1.1-.44.47-.91.92-1.39,1.35-.51.46-1.03.91-1.55,1.35-.23.19-.45.37-.68.56-.09.07-.17.14-.26.21-.1.08.08-.06.08-.06-.05.04-.09.07-.14.1-.47.35-.71.93-.39,1.48.27.46,1.01.74,1.48.39v0l-.01-.01Z" fill="#1e1e1e" stroke-width="0"/></g><g><path d="M40.53,125.56c-4.12-7.94-6.12-14.89-8.88-21.72-.19-.47-.18-1.16-.09-1.66.17-1.04,1.53-1.99,2.59-2.01c11.99-.24,18.96-.35,31.76-.04.41,0,1.59.25,1.92.5c1.04.81,1.29,1.54,1.57,2.15c3.19,6.83,5.45,15.99,7.09,23.34-11.95.24-23.39.16-35.67-.33" fill="#efefef" stroke-width="0"/><path d="M41.46,125.01c-2.8-5.44-4.89-11.15-7.01-16.88-.47-1.28-.95-2.55-1.46-3.82-.47-1.2-.73-2.54.84-3.01c1.28-.38,3-.11,4.32-.14c1.5-.03,3-.05,4.5-.08c5.17-.08,10.33-.1,15.5-.03c1.46.02,2.93.04,4.39.07c1.36.03,3.05-.23,4.34.27.96.37,1.33,1.4,1.73,2.27.62,1.38,1.19,2.78,1.7,4.2c2.2,6.02,3.72,12.28,5.11,18.53l1.04-1.37c-11.89.24-23.78.14-35.67-.33-1.39-.05-1.39,2.11,0,2.16c11.88.47,23.78.57,35.67.33.73-.01,1.2-.68,1.04-1.37-1.4-6.25-2.91-12.51-5.11-18.53-.49-1.35-1.03-2.69-1.6-4.01s-1.07-2.59-2.22-3.43c-.77-.56-1.74-.75-2.68-.82-1.85-.14-3.75-.08-5.6-.11-6.01-.1-12.03-.09-18.04,0-1.51.02-3.02.05-4.53.08-1.43.03-3.09-.18-4.47.21-1.07.3-2.1,1.1-2.56,2.13-.59,1.34-.14,2.65.36,3.91c2.75,7,5.09,14.13,8.54,20.84.64,1.24,2.5.14,1.87-1.09v0v.02Z" fill="#1e1e1e" stroke-width="0"/></g></g><g transform="translate(.000001 0)"><g><path d="M51.15,115.86c-.92-1.82-1.74-3.68-2.45-5.57-.16-.42-.32-.85-.42-1.28-.02-.07-.03-.13-.04-.2-.02-.1,0,.06,0,0c0-.02,0-.07,0-.08-.02-.02-.02.07,0,.05c0-.01-.11.12-.12.14-.01.05.05-.02.05-.02.07-.02.15-.04.22-.06.73-.15,1.52-.13,2.27-.11.7.02,1.4.05,2.09.13.81.09,1.85.29,2.22,1.05.44.91-.32,1.77-1.32,1.85-.51.04-.42.8.08.81c1.32.02,3.52.52,3.64,2.02.05.66-.32,1.38-1.01,1.63s-1.52.19-2.26.16c-.51-.02-1.02-.03-1.53-.05-.35-.02-.71-.08-1.06-.07c0,0-.23-.03-.11.02.06.02.02.03-.01-.03-.07-.14-.16-.28-.24-.42-.25-.48-1.04-.1-.8.38.11.22.23.46.41.64.22.23.53.21.84.23.66.05,1.32.06,1.98.09.97.04,2,.13,2.93-.15c1-.3,1.57-1.08,1.72-2.02.14-.88-.32-1.7-1.06-2.25-.94-.71-2.22-1-3.42-1.02l.08.81c1.06-.09,1.95-.83,2.12-1.79s-.39-1.83-1.29-2.26c-.77-.38-1.66-.47-2.52-.54-.9-.07-1.81-.1-2.72-.07-.41.02-.82.04-1.22.12-.27.05-.62.13-.78.35-.21.3-.06.75.03,1.06.36,1.25.91,2.47,1.44,3.67.46,1.05.92,2.1,1.44,3.12.24.48,1.04.11.8-.38v0c0,0,0,0,0,0l.02.04Z" fill="#ec0047" stroke-width="0"/><path d="M51.8,110.15v-.04c0,0,0,.03,0,.02c0,0,.02-.06.02-.07c0-.02.02-.04.02-.06.01-.04-.04.06-.01.02c0-.01.02-.03.02-.04.01-.02.02-.03.04-.05c0-.01.02-.02.02-.03.02-.03-.05.04-.02.02.02-.01.03-.03.04-.04.01,0,.09-.06.04-.03s.02-.01.03-.02c.02,0,.04-.02.06-.03h.03c0,0-.03,0-.03,0c.01,0,.07-.02.08-.02.02,0,.04,0,.06,0c.09-.01-.05,0,0,0s.1,0,.15,0c.09,0-.05-.02,0,0c.03,0,.05.01.07.02.02,0,.04.01.06.02.01,0,.02,0,.04.01.04.01-.07-.04-.02,0c.04.02.08.05.12.08.04.02-.05-.04-.02-.01c0,0,.02.01.02.02.02.02.04.04.07.06c0,.01.02.02.03.03.01.02.02.04,0,0-.01-.04,0,0,0,.01c0,0,.01.02.02.03.02.02.03.05.04.08c0,.01.01.03.02.04-.02-.03-.01-.04,0,0c0,.02.06.15.04.17c0,0,0-.08,0-.02v.04c0,0-.02.1,0,.03-.01.03-.02.07-.03.1c0,.02-.05.11-.02.04-.02.03-.04.06-.06.09c0,.01-.02.02-.03.04-.02.03.05-.05,0,0-.02.02-.05.04-.07.06.07-.05-.02,0-.04.02-.03.02.05,0,.01,0-.02,0-.04,0-.06.01-.06.01,0,0,.02,0h-.08c-.16-.02-.28.09-.33.21-.16.35-.3.7-.45,1.06-.06.15.05.35.22.39.18.05.36-.03.42-.19.15-.35.29-.71.45-1.06l-.33.21c.45.04.81-.25.97-.61.15-.32.09-.69-.1-.99-.33-.51-1.07-.75-1.66-.46-.34.17-.54.47-.58.82-.02.16.15.32.32.32.19,0,.33-.12.35-.29v0c0,0,0-.01,0-.01h.04Z" fill="#ec0047" stroke-width="0"/><path d="M51.42,110.46c-.21.5-.37,1.03-.57,1.53-.04.1.03.22.14.26.12.04.24-.02.28-.13.2-.51.36-1.03.57-1.53.04-.1-.03-.23-.14-.26-.12-.04-.24.03-.28.13Zm.55,1.93c0,0,.05.02.08.03-.06-.02-.02-.01,0,0c0,0,.02.01.03.01c0,0,.02.01.03.02.02.01.05.04,0,0c.02.02.04.03.05.05c0,0,.01.01.02.02c0,0,.03.04,0,0s0,0,0,0l.02.02c0,0,.02.04.03.06-.03-.07,0,0,0,.02v.06c0,0,.02.02.02.03-.01-.07,0-.03,0-.02s0,.04,0,.05v.03c0,0-.02.03,0-.02c0,.02-.01.04-.02.06c0,0,0,.02,0,.03c0,.02-.03.04,0-.02-.01.01-.02.03-.03.05c0,0,0,.01-.02.02-.02.03.04-.04,0,0-.08.08-.1.21-.01.29.08.07.23.1.32.02.18-.17.24-.42.17-.65-.07-.26-.28-.46-.55-.54-.11-.03-.25.02-.28.13s.02.22.14.26v0c0,0,0,0,0,0v-.01Z" fill="#ec0047" stroke-width="0"/><path d="M50.58,112c-.21.15-.28.43-.26.65.02.29.13.56.35.78.13.14.3.24.49.3.16.06.38-.04.42-.19.05-.17-.04-.33-.22-.39-.02,0-.04-.01-.06-.02.1.04.04.02.01,0s-.06-.03-.09-.05c-.05-.04,0,.02.02.02-.01,0-.04-.03-.04-.04-.02-.02-.05-.05-.07-.07s-.05-.08,0,.01l-.02-.03c0,0-.04-.06-.06-.09s-.05-.13-.01-.02c0-.03-.02-.06-.03-.08s-.01-.06-.02-.08v-.05c-.02-.05,0,.09,0,.03s0-.11,0-.17c0-.05-.02.08,0,.04v-.04c0,0,.02-.02.02-.03.01-.03.04-.05-.02.03l.04-.05c0,0-.07.07-.02.03l.03-.02c.14-.1.14-.32.02-.44-.14-.13-.33-.13-.48-.02v0c0,0,0,0,0,0v-.01Z" fill="#ec0047" stroke-width="0"/><path d="M51.19,113.66c.49.41,1.07.72,1.59,1.1.14.1.38.04.47-.09.1-.15.05-.32-.1-.43-.25-.18-.52-.35-.78-.53-.13-.09-.27-.18-.4-.27-.06-.04-.12-.08-.18-.13-.02-.02-.05-.04-.08-.06.09.07,0,0-.02-.02-.13-.11-.34-.15-.48-.02-.12.11-.16.32-.02.44v0c0,0,0,0,0,0v.01Zm1.08-.29c.18.14.37.27.56.39.14.09.29.19.43.28.14.1.38.05.47-.09.1-.15.05-.32-.1-.43-.14-.1-.29-.19-.43-.28-.19-.13-.38-.26-.56-.39-.06-.05-.18-.06-.26-.04s-.17.07-.21.13c-.05.07-.07.15-.05.23s.07.14.15.19v0v.01Z" fill="#ec0047" stroke-width="0"/><path d="M53.82,114c0,0,.05-.06,0-.01s0,0,0,0s.03-.02.04-.03c.03-.03-.07.04-.01,0c.03-.01.06-.03.09-.04.06-.03-.02,0-.01,0c.02,0,.04-.01.06-.02.04,0,.08-.02.12-.02c0,0,.05-.01.05,0c0,0-.08,0-.04,0c.01,0,.03,0,.05,0c.04,0,.08,0,.12,0h.06c0,0,.1.02.04,0s.01,0,.03,0s.05.01.07.02c.04.01.09.03.13.04.01,0,.09.04.03.01-.05-.02.01,0,.02.01.04.02.08.04.12.07.02.01.04.03.05.04-.04-.03-.04-.03,0,0s.06.07.09.1c.04.04-.03-.05,0,0c.01.02.03.04.04.06s.02.03.03.05c0,0,0,.02.01.03.02.03-.02-.06,0,0c.01.04.03.09.03.13c0,.01.01.08,0,.03c0-.05,0,.04,0,.06c0,.05,0,.11-.01.16c0,.06.01-.04,0,.02c0,.03-.01.06-.02.08c0,.02-.02.04-.03.07c0,.01-.03.07,0,.03s-.02.02-.02.03c-.01.02-.02.04-.04.06s-.03.03-.04.05c.03-.04.03-.03,0,0s-.07.06-.11.09c-.01,0-.02.01-.03.02c0,0,.06-.03.03-.02-.02,0-.04.02-.06.03-.04.02-.08.04-.13.06s-.04.01,0,0l-.07.02c0,0-.09.02-.14.03-.02,0-.04,0-.06,0-.01,0-.03,0-.04,0-.04,0,.04,0,.04,0-.02.02-.12,0-.15,0-.05,0-.09,0-.14-.01-.08,0,.05.01,0,0-.03,0-.05-.01-.07-.02-.05-.01-.1-.03-.15-.05-.04-.01-.08-.04-.02,0-.02-.01-.05-.02-.07-.04-.04-.03-.09-.06-.13-.08-.03-.02.02.02.02.02-.01,0-.02-.02-.03-.03-.02-.02-.04-.04-.06-.05s-.03-.04-.05-.06c-.04-.04.03.05,0-.01-.03-.05-.05-.1-.08-.15-.02-.03,0,.02.01.02c0-.01-.01-.03-.01-.04c0-.03-.02-.06-.02-.09s-.01-.05-.02-.08v-.05c0,0,0,.08,0,0-.01-.17-.13-.32-.32-.32-.17,0-.36.13-.35.29.02.3.11.57.3.81.16.2.38.34.63.44.46.18,1.04.15,1.47-.08.53-.29.76-.82.67-1.37-.08-.49-.51-.87-1.02-1s-1.15-.09-1.46.33c-.1.14-.05.34.1.43s.36.05.47-.09v0c0,0,0,.01,0,.01l-.01.01Zm-5.52-4.32c2-.15,4-.02,6,.04.58.02.62-.8.04-.82-2.08-.06-4.16-.17-6.24-.02-.24.02-.38.29-.34.49.06.24.3.33.54.31v0Z" fill="#ec0047" stroke-width="0"/><path d="M48.47,110.44c.89.03,1.78.1,2.67.12.24,0,.47-.16.47-.39s-.18-.42-.43-.43c-.89-.03-1.78-.09-2.67-.12-.24-.01-.47.16-.47.39s.18.42.43.43Zm4.93-.09c.6.03,1.19.09,1.79.12.24.01.47-.17.47-.39s-.18-.42-.43-.43c-.6-.03-1.19-.09-1.79-.12-.24-.01-.47.17-.47.39s.18.42.43.43Z" fill="#ec0047" stroke-width="0"/><path d="M48.63,111.27c.88-.03,1.75-.05,2.63-.11.19-.01.37-.12.38-.31c0-.16-.15-.36-.34-.35-.88.06-1.75.08-2.63.11-.19,0-.37.12-.38.31c0,.17.15.35.34.35Zm4.49-.01c.74.05,1.48.09,2.22.12.24.01.47-.17.47-.39s-.18-.42-.43-.43c-.74-.04-1.48-.08-2.22-.12-.24-.02-.47.17-.47.39s.18.42.43.43Zm-.64.89c.7.03,1.4,0,2.09.04.24.01.47-.17.47-.39s-.18-.42-.43-.43c-.7-.03-1.4,0-2.09-.04-.24-.01-.47.17-.47.39s.18.42.43.43Zm-1.53-.85c-.63,0-1.25.05-1.88.01-.24-.01-.47.17-.47.39s.18.42.43.43c.62.04,1.25-.01,1.88-.01.23,0,.47-.16.47-.39c0-.21-.18-.43-.43-.43Z" fill="#ec0047" stroke-width="0"/><path d="M49.48,112.98c.34.01.69-.04,1.03,0c.24.02.47-.17.47-.39c0-.23-.18-.41-.43-.43-.34-.03-.69.02-1.03,0-.12,0-.24.03-.32.1s-.15.18-.14.28c0,.1.03.22.12.3s.19.13.31.13l-.01.01Zm3.21.03c1-.01,2,.04,3,.09.24.01.47-.17.47-.39s-.18-.42-.43-.43c-1-.05-2-.1-3-.09-.23,0-.47.16-.47.39c0,.21.18.43.43.43Z" fill="#ec0047" stroke-width="0"/><path d="M53.18,113.84c.65,0,1.29.06,1.94.11.31.02.62.03.93.05.38.02.75.06,1.13,0c.24-.04.39-.28.34-.49-.06-.23-.3-.35-.54-.31-.31.05-.64,0-.95-.02s-.62-.02-.92-.05c-.63-.05-1.25-.1-1.88-.1-.24,0-.46.16-.47.39-.01.22.18.43.43.43v0l-.01-.01Zm-3.2.1c.47.02.94.08,1.41.11.24.01.47-.17.47-.39s-.18-.42-.43-.43c-.47-.02-.94-.08-1.41-.11-.24-.01-.47.17-.47.39s.18.42.43.43Zm.34.93c.72.02,1.44.01,2.16.05.24.01.47-.17.47-.39s-.18-.42-.43-.43c-.72-.04-1.44-.03-2.16-.05-.24,0-.47.16-.47.39s.18.43.43.43Zm5.35.11c.64.03,1.29,0,1.93.04.24.01.47-.17.47-.39s-.18-.42-.43-.43c-.64-.03-1.29,0-1.93-.04-.24-.01-.47.17-.47.39s.18.42.43.43Zm-5.23.84c1.03.07,2.05.18,3.08.24c1.32.08,2.64.07,3.96.02.57-.02.62-.84.04-.82-1.32.05-2.64.06-3.96-.02-1.03-.06-2.05-.17-3.08-.24-.58-.04-.62.78-.04.82Zm.68,1.03c1.38.07,2.76.12,4.14.15.45.01.86.07,1.29,0c.57-.08.37-.88-.2-.8-.39.05-.82-.02-1.21-.03-.44-.01-.87-.02-1.31-.04-.89-.03-1.78-.07-2.67-.11-.58-.03-.62.79-.04.82v0v.01Z" fill="#ec0047" stroke-width="0"/></g><g><path d="M80.82,117.54c-.9.86-1.95,1.47-2.79,2.25-.78.72-1.57,1.42-2.47,2.13" fill="#efefef" stroke-width="0"/><path d="M80.05,116.77c-.21.2-.42.38-.64.56-.05.04-.1.08-.15.12-.23.19.1-.07-.04.03-.11.08-.22.17-.33.25-.49.36-.98.72-1.43,1.11-.89.77-1.74,1.58-2.67,2.31-.44.35-.4,1.16,0,1.53.47.43,1.05.38,1.53,0c.92-.74,1.78-1.54,2.67-2.31.09-.08.18-.15.27-.23.06-.05.12-.09.18-.14.13-.1-.13.1,0,0c.22-.16.44-.33.66-.49.51-.38,1.02-.77,1.49-1.22.41-.39.42-1.14,0-1.53s-1.09-.42-1.53,0v0l-.01.01Z" fill="#1e1e1e" stroke-width="0"/></g></g></g><path d="M66.34,127.81c-.96.92-1.83,1.93-2.8,2.83-.8.74-1.9,1.65-2.88,1.66-.45,0-.86-.15-1.28-.5-.29-.24-.47-.45-.59-.79-.16-.42-.29-.86-.4-1.3-.48-1.76-.79-3.56-1.63-5.2s-2.47-3.63-4.6-3.26c-1.53.27-2.43,1.81-2.14,3.29.49,2.45,3.55,3.05,5.62,3.11c1.39.04,1.39-2.12,0-2.16-.57-.02-1.09-.05-1.63-.18s-.75-.19-1.14-.41c-.08-.04-.15-.1-.23-.14-.18-.1-.02,0-.05-.03-.12-.11-.24-.22-.35-.35.19.21-.05-.11-.1-.21-.03-.04.05.22.02.03-.01-.06-.03-.15-.05-.2-.06-.13-.02.19,0,.06c0-.04,0-.13,0-.17-.03-.15.03-.08-.02.06.02-.06.03-.13.04-.19.04-.26-.11.12.04-.09.03-.05.07-.11.1-.16-.08.15-.14.14-.01.03.04-.03.08-.07.12-.11.07-.08-.12.09-.11.09c0,0,.06-.05.07-.05s.13-.07.14-.08c-.01,0-.22.04-.03.01.04,0,.13-.02.17-.04.12-.06-.19-.02-.05,0c.05,0,.13,0,.18,0c.26-.02-.11-.05.03,0c.1.03.46.17.21.05.16.08.31.16.45.26.17.11.02,0,.07.05.07.06.15.13.22.2.17.16.33.34.47.52-.05-.06.12.18.15.23.07.11.14.22.21.34.19.31.36.63.51.96.32.71.53,1.48.72,2.24.21.82.39,1.65.62,2.46s.49,1.67,1.08,2.3c.95,1.01,2.24,1.63,3.63,1.45c2.88-.38,4.81-3.22,6.76-5.08c1.01-.96-.52-2.49-1.53-1.53v0h-.01Z" fill="#1e1e1e" stroke-width="0"/></g><g id="ef94PeJirnE90_tr" transform="translate(135.16,127.017265) rotate(1.482261)"><g transform="translate(-135.159999,-127.017265)"><g id="ef94PeJirnE91_to" transform="translate(160.926962,123.376139)"><g transform="translate(-157.71389,-128.594128)"><path d="M160.52,100.61c.09-1.29.15-2.47.48-3.73s1.28-1.69,2.59-2.23c1.84-.76,4.93-2.24,5.56-1.47.36.44,3.77,5.2,3.72,5.9-.08,1.07-3.23,5.71-3.61,6.17" fill="#eea6ff" stroke-width="0"/><g><path d="M162.86,96.44c.07.05.12.12.19.18.22.23.48.41.73.59.8.59,1.68,1.08,2.44,1.73.16.14.29.29.5.33.17.03.34.03.51.03.36,0,.72-.01,1.08-.04.48-.04.95-.09,1.43-.1.36,0,.71,0,1.07,0c.28-.01.55.01.83.03.13,0,.26.01.39,0c.05,0,.17-.03.21,0l-.05.05" fill="#eea6ff" stroke-width="0"/><path d="M162.04,97.26c.68.62,1.41,1.15,2.18,1.67.35.23.71.46,1.04.72.37.29.68.63,1.16.75.94.24,2.02,0,2.97-.06.5-.03,1.01-.02,1.51-.02.22,0,.44.01.66.02.09,0,.19.01.28.01.05,0,.35,0,.1-.04l-.52-1.95-.05.05c-1.04,1.09.61,2.75,1.65,1.65l.05-.05c.56-.59.39-1.79-.52-1.95-.84-.16-1.78-.09-2.63-.08s-1.79.11-2.68.15c-.19,0-.25,0-.09.06-.19-.09-.43-.35-.59-.47-.31-.24-.63-.46-.95-.67-.67-.45-1.32-.89-1.91-1.44-.47-.43-1.19-.46-1.65,0-.43.43-.47,1.23,0,1.65v0h-.01Z" fill="#c05dd8" stroke-width="0"/></g><g><path d="M167.52,99.73c-.39,1.42-.57,1.82-1.06,3.17" fill="#eea6ff" stroke-width="0"/><path d="M166.4,99.42c-.3,1.08-.68,2.12-1.06,3.17-.1.27-.02.66.12.9s.42.47.7.54c.3.07.64.05.9-.12s.43-.4.54-.7c.38-1.05.76-2.09,1.06-3.17.16-.59-.2-1.3-.82-1.44s-1.27.19-1.44.82v0Z" fill="#c05dd8" stroke-width="0"/></g><path d="M161.6,100.61c.05-.71.08-1.42.18-2.13.08-.58.14-1.35.5-1.83.54-.73,1.76-1.02,2.56-1.36.98-.42,1.97-.86,3.01-1.13.11-.03.23-.06.34-.08.03,0,.3-.04.14-.03.07,0,.15-.01.22,0c.26.02-.12-.1.07.02-.08-.05-.15-.05-.23-.11.08.06.03-.01-.02-.03-.09-.04-.07-.1,0,0c.04.05.08.1.12.16.96,1.3,1.88,2.63,2.72,4.01.17.28.34.56.48.85.06.12.22.33.07.12.11.15.07.32.04.02s0-.12-.05.07c-.08.27.04-.06-.09.23-.17.35-.35.68-.53,1.02-.51.9-1.06,1.78-1.63,2.64-.23.34-.45.68-.69,1.02-.09.13-.18.26-.28.39-.12.17-.16.21-.03.04-.37.45-.44,1.08,0,1.53.38.38,1.16.46,1.53,0c1.1-1.36,2.03-2.9,2.89-4.42.38-.67.84-1.41.99-2.18s-.29-1.48-.66-2.13c-.89-1.53-1.91-2.99-2.97-4.41-.63-.85-1.35-1.1-2.41-.93-1.27.2-2.49.77-3.66,1.27-1.29.55-2.79.98-3.67,2.16-1.04,1.4-.99,3.57-1.1,5.23-.09,1.39,2.07,1.38,2.16,0v0-.01Z" fill="#1e1e1e" stroke-width="0"/><g><path d="M161.33,106.59c-6.73,18.95-10.51,32.17-17.5,51.06-1.65,4.46-2.32,4.89,2.05,6.54c3.13-7.63,4.06-10.57,4.92-13.14c4.5-13.44,5.43-17.26,10.06-28.88c1.82-4.57,2.38-7,4.78-13.42" fill="#fff" stroke-width="0"/><path d="M160.29,106.3c-3.19,9-6.17,18.07-9.18,27.13s-6.06,17.43-9.16,26.13c-.39,1.08-.75,2.33-.12,3.4.75,1.26,2.47,1.77,3.75,2.26.59.23,1.13-.26,1.33-.75c2.83-6.9,5.2-13.91,7.51-21s5.03-14.7,7.84-21.97c1.59-4.11,2.87-8.34,4.41-12.47.49-1.3-1.6-1.87-2.08-.57-1.39,3.74-2.58,7.55-3.96,11.29s-2.99,7.61-4.36,11.46c-2.52,7.06-4.71,14.24-7.11,21.35-1.29,3.83-2.78,7.6-4.32,11.34l1.33-.75c-.65-.25-2.33-.66-2.53-1.46s.7-2.34.98-3.08c1.62-4.28,3.14-8.59,4.63-12.92c2.77-7.99,5.37-16.04,8.05-24.06c1.65-4.93,3.33-9.85,5.07-14.75.47-1.31-1.62-1.88-2.08-.57v0-.01Z" fill="#1e1e1e" stroke-width="0"/></g><g><path d="M159.45,109.84c-4.36,2.07.76,5.19,3.54,5.21c2.43.02,2.69-1.49,2.26-3.07" fill="#fff" stroke-width="0"/><path d="M158.91,108.91c-1.13.54-2.29,1.52-2.22,2.9.06,1.21.93,2.11,1.85,2.78s1.98,1.12,3.06,1.36c1.2.27,2.68.32,3.73-.43c1.26-.9,1.33-2.45.96-3.83-.15-.55-.78-.93-1.33-.75s-.91.74-.75,1.33c.05.2.08.41.13.62-.09-.34,0-.04,0,.07c0,.12,0,.23,0,.34c0,.29.07-.23,0,.04-.02.08-.05.17-.07.25-.05.19.14-.23.03-.07-.02.03-.03.06-.05.09-.01.02-.09.11-.09.13c0-.06.2-.21.03-.06-.03.03-.07.06-.1.09-.09.1.24-.15.06-.05-.07.04-.2.09-.26.14.15-.13.18-.06.05-.03-.06.01-.11.03-.16.05-.06.02-.12.03-.18.04-.28.07.17,0-.06.01-.25.02-.5.03-.76.02-.1,0-.19-.02-.29-.03.38.02-.02,0-.13-.03-.44-.09-.86-.22-1.28-.38-.05-.02-.11-.06-.16-.06.17.02.17.07.07.03-.1-.05-.2-.09-.3-.14-.22-.11-.43-.22-.64-.35-.18-.11-.35-.25-.53-.36.28.17,0,0-.06-.06-.09-.08-.17-.16-.25-.24-.06-.07-.12-.14-.19-.21-.13-.15.12.19.05.07-.02-.04-.05-.07-.07-.11-.05-.07-.09-.14-.13-.22-.02-.04-.09-.19,0,0s0,0,0-.05c0-.03-.01-.06-.02-.09-.07-.25,0,.23,0,.06c0-.06.02-.36,0-.13-.03.26.05-.1.05-.13.02.15-.12.23-.03.08.03-.04.05-.09.08-.13.07-.12.14-.08-.04.04.04-.03.08-.09.12-.13s.07-.07.11-.11c.02-.02.05-.04.07-.06.09-.07.07-.06-.06.04.02-.08.32-.21.38-.25.15-.09.31-.17.46-.24.51-.25.69-1.01.39-1.48-.34-.52-.93-.65-1.48-.39v0l.01.02Z" fill="#1e1e1e" stroke-width="0"/></g><g><path d="M165.08,111.64c-2.41.07-3.79-.54-5.38-1.96" fill="#fff" stroke-width="0"/><path d="M165.08,110.56c-.28,0-.55,0-.83,0-.12,0-.24-.01-.36-.02-.07,0-.13-.01-.2-.02-.17-.02-.08.03.02,0-.18.04-.5-.09-.68-.13-.21-.05-.42-.12-.63-.2-.02,0-.11-.06-.13-.05.05-.03.21.09.04.02-.09-.04-.19-.09-.28-.13-.2-.1-.39-.21-.57-.33-.1-.06-.2-.13-.3-.2-.05-.04-.1-.07-.15-.11-.11-.08-.01,0,.04.03-.21-.13-.41-.33-.6-.5-.42-.37-1.12-.45-1.53,0-.38.41-.45,1.13,0,1.53.85.76,1.76,1.39,2.82,1.81s2.2.5,3.32.47c.56-.01,1.11-.49,1.08-1.08s-.47-1.1-1.08-1.08v0l.02-.01Z" fill="#1e1e1e" stroke-width="0"/></g><g><path d="M160.14,105c1.67,1.8,5.31,2.93,6.99,3.07.57.05,2.08-1.83,2.59-3.27-3.19-.43-6.22-1.5-9.54-3.71-.2,1.02-.46,3.6.08,4.06" fill="#fff" stroke-width="0"/><path d="M159.38,105.76c1.64,1.72,4.17,2.71,6.45,3.19.48.1,1.01.24,1.5.18.53-.06.96-.39,1.33-.75.93-.89,1.66-2.08,2.11-3.29.18-.5-.21-1.25-.75-1.33-3.38-.47-6.44-1.73-9.28-3.6-.55-.36-1.46-.02-1.59.65-.16.87-.26,1.76-.28,2.64-.01.82,0,1.85.64,2.46c1,.97,2.53-.56,1.53-1.53-.12-.12.14.17.05.06-.04-.05.04.22.02.03c0-.05-.03-.11-.04-.16-.05-.2,0,.1,0-.04-.03-.35-.04-.71-.02-1.06s.04-.71.08-1.06c0-.09.02-.18.03-.28.02-.19-.04.24.01-.07.02-.14.05-.28.07-.42l-1.59.65c2.97,1.96,6.26,3.33,9.79,3.82l-.75-1.33c-.28.77-.88,1.68-1.51,2.3-.07.07-.15.14-.23.21s.15-.09-.05.03c-.13.07.22-.09.05-.02.43-.17.09.05.03-.05-.12-.01-.11-.01.02,0h-.09c-.1-.03-.2-.05-.29-.07-.21-.04-.43-.09-.64-.14-1.82-.45-3.8-1.2-5.06-2.54-.96-1.01-2.49.52-1.53,1.53v0l-.01-.01Z" fill="#1e1e1e" stroke-width="0"/></g></g></g><g><ellipse rx="1.87" ry="2.8" transform="matrix(.187381-.982287 0.982287 0.187381 158.775659 124.487479)" fill="#fff" stroke-width="0"/><path d="M136.05,126.74c2.79-1.41,6.35-1.5,9.41-1.75c1.66-.14,3.31-.14,4.97-.07.91.04,1.85.02,2.76.15c1.13.17,1.78.76,2.66,1.42c2.22,1.64,6.88.95,7.02-2.43.16-3.97-6.79-2.29-8.76-1.44-1.27.55-.17,2.41,1.09,1.87c1.41-.61,3.55-1.16,5.06-.64.87.3-.04.94-.56,1.18-.61.28-1.33.33-1.96.09-.7-.26-1.22-.89-1.83-1.3-.57-.39-1.22-.65-1.9-.79-1.44-.3-2.99-.26-4.46-.3-2.52-.08-5.01.17-7.51.44s-4.92.61-7.09,1.71c-1.24.63-.15,2.49,1.09,1.87v0l.01-.01Z" fill="#1e1e1e" stroke-width="0"/></g></g></g></g></g></g></g><g id="ef94PeJirnE115" transform="matrix(1.123264 0 0 1.123264-27.399604-33.109825)" opacity="0"><g transform="matrix(.985319-.170724 0.170724 0.985319-30.852624 53.602663)"><g id="ef94PeJirnE117_to" style="offset-path:path('M148.85374,92.069041C146.336458,62.874128,165.383671,26.855331,194.067252,49.803661');offset-rotate:0deg"><g id="ef94PeJirnE117_tr" transform="rotate(-52.892521)"><path d="M148.656909,93.473738c-.590051-.161326,2.039605,1.981305,2.039605,1.981305s3.013764.908888,6.273486-2.175043l-3.701748-2.849717c0,0-1.908436,3.782457-4.611343,3.043455Z" transform="translate(-152.285004,-93.274998)" fill="#3bd1d1" stroke-width="0"/></g></g><g id="ef94PeJirnE118_to" style="offset-path:path('M145.048522,89.40197C156.40382,64.028374,181.614969,43.307015,198.35557,64.073355');offset-rotate:0deg"><g id="ef94PeJirnE118_tr" transform="rotate(20.708574)"><path d="M148.61,107.37c0,0,.84-1.93,1.34-2.87c0,0,.84-.69,4.76,2.77l-1.79,3.32c-.688748-2.418791-3.877021-4.604285-4.31-3.21v-.01Z" transform="translate(-151.659996,-107.516953)" fill="#ff435a" stroke-width="0"/></g></g><g id="ef94PeJirnE119_to" style="offset-path:path('M143.033295,88.461265C159.562963,57.770904,192.618851,69.869573,190.088368,82.625219');offset-rotate:0deg"><g id="ef94PeJirnE119_tr" transform="rotate(0)"><path d="M166.17,83.68c0,0,2.38,2.9,3.07,3.1c0,0,3.64-2.1,4.83-3.66l-2.75-2.64-5.15,3.2Z" transform="translate(-170.120003,-83.629997)" fill="#3bd1d1" stroke-width="0"/></g></g><g id="ef94PeJirnE120_to" style="offset-path:path('M142.6517,91.142082C148.231417,84.489238,150.62675,31.024914,180.535256,51.223764');offset-rotate:0deg"><g id="ef94PeJirnE120_tr" transform="rotate(0)"><path d="M188.29,95.91c0,0,.32-3.36-.6-6.33c0,0,2.91-.92,3.96-1.39c0,0,1.51,1.98,1.39,6.6c0,0-4.42,1.19-4.76,1.12h.01Z" transform="translate(-190.368385,-92.051487)" fill="#ff435a" stroke-width="0"/></g></g><g id="ef94PeJirnE121_to" style="offset-path:path('M144.182319,88.523816C149.780153,78.820838,160.017075,50.322775,186.771408,64.446699');offset-rotate:0deg"><g id="ef94PeJirnE121_tr" transform="rotate(41.65678)"><path d="M154.93,92.89c0,0,1.49,2.28,1.69,3.47c0,0,4.67-1.39,5.86-.8c0,0-1.1-3.86-1.39-4.36c0,0-3.77.39-6.15,1.69h-.01Z" transform="translate(-158.704994,-93.779999)" fill="#ffeb42" stroke-width="0"/></g></g></g><g transform="matrix(.961773 0.273849-.273849 0.961773 46.526889 5.377114)"><g id="ef94PeJirnE123_to" style="offset-path:path('M65.585844,84.35611C45.291098,45.556409,29.743829,44.95358,23.937953,83.765319');offset-rotate:0deg"><g id="ef94PeJirnE123_tr" transform="rotate(0)"><path d="M42.71,76.53c0,0,1.64-2.17,2.48-2.23l2.62,3.62c0,0-.5.3-1.99,2.13c0,0-1.49-.84-3.12-3.51h.01v-.01Z" transform="scale(1.374064,1.419317) translate(-45.254997,-77.174995)" fill="#ffeb42" stroke-width="0"/></g></g><g id="ef94PeJirnE124_to" style="offset-path:path('M68.809647,92.150509C57.480886,55.556318,24.005927,34.394635,9.491372,73.577264');offset-rotate:0deg"><g id="ef94PeJirnE124_tr" transform="rotate(0)"><path d="M52.46,84.73c-.46.12,1.42-.19,4.53-1.78c0,0,1.22,1.98,1.81,2.44c0,0-2.52,1.71-4.67,2.51l-1.69-3.17h.01.01Z" transform="translate(-55.595543,-85.425007)" fill="#3bd1d1" stroke-width="0"/></g></g><g id="ef94PeJirnE125_to" style="offset-path:path('M63.202895,97.427165C56.674427,85.149644,47.549321,18.408107,23.775278,51.319968');offset-rotate:0deg"><g id="ef94PeJirnE125_tr" transform="rotate(0)"><path d="M38.97,88.11c0,0,1.49-1.69,1.69-3.56c0,0,4.37,1.78,5.15,3.56c0,0-1.49,3.36-2.08,3.76c1.224702-1.234244-2.128076-3.820821-4.76-3.76Z" transform="translate(-42.390001,-88.210003)" fill="#ff435a" stroke-width="0"/></g></g><g id="ef94PeJirnE126_to" style="offset-path:path('M66.125944,94.21684C54.131217,67.732098,37.09136,32.056443,19.058293,70.410486');offset-rotate:0deg"><g id="ef94PeJirnE126_tr" transform="rotate(-207.628927)"><path d="M16.03,100.39c.165708-1.786935.24-4.51,1.1-5.88l4.07.15c0,0-1.24,2.67-1.29,5.69l-3.87.05h-.01c0,0-.000277-.007013,0-.01Z" transform="translate(-19.604575,-96.99177)" fill="#ff435a" stroke-width="0"/></g></g><g id="ef94PeJirnE127_to" style="offset-path:path('M67.358245,97.468965C50.18801,29.444294,34.420652,65.747786,36.37706,79.140127');offset-rotate:0deg"><g id="ef94PeJirnE127_tr" transform="rotate(0)"><path d="M25.05,79.83c0,0,1.39,3.06,3.67,5.73c0,0,3.18-2.37,3.18-2.37s-1.88-3.56-2.77-5.73c0,0-2.18.39-4.07,2.37h-.01Z" transform="translate(-28.474999,-81.510002)" fill="#3bd1d1" stroke-width="0"/></g></g></g></g></svg>
